<svg width="827" height="827" viewBox="0 0 827 827" fill="none" xmlns="http://www.w3.org/2000/svg">
<rect y="0.333252" width="826.667" height="826.667" rx="61" fill="white"/>
<path d="M26.6666 120.333V170.666C26.6666 194.415 45.9184 213.667 69.6666 213.667H120H170.333C194.082 213.667 213.333 194.415 213.333 170.667V120.333V69.9999C213.333 46.2516 194.082 26.9998 170.333 26.9998H120H69.6666C45.9184 26.9998 26.6666 46.2516 26.6666 69.9998V120.333ZM186.667 120.333V171C186.667 179.836 179.503 187 170.667 187H120H69.3333C60.4967 187 53.3333 179.836 53.3333 171V120.333V69.6665C53.3333 60.8299 60.4967 53.6665 69.3333 53.6665H120H170.667C179.503 53.6665 186.667 60.8299 186.667 69.6665V120.333Z" fill="black"/>
<path d="M80 120.333V146.333C80 154.065 86.268 160.333 94 160.333H120H146C153.732 160.333 160 154.065 160 146.333V120.333V94.3333C160 86.6013 153.732 80.3333 146 80.3333H120H94C86.268 80.3333 80 86.6013 80 94.3333V120.333Z" fill="black"/>
<path d="M293.333 40.3332V51.6666C293.333 52.7711 292.438 53.6666 291.333 53.6666H266.667H242C240.895 53.6666 240 54.562 240 55.6666V80.3332V105C240 106.104 240.895 107 242 107H253.333H266.667V120.333V131.667C266.667 132.771 265.771 133.667 264.667 133.667H253.333H242C240.895 133.667 240 134.562 240 135.667V187V240.333H213.333H188.667C187.562 240.333 186.667 241.229 186.667 242.333V253.667V267H160H135.333C134.229 267 133.333 266.104 133.333 265V253.667V242.333C133.333 241.229 132.438 240.333 131.333 240.333H120H108.667C107.562 240.333 106.667 241.229 106.667 242.333V253.667V265C106.667 266.104 105.771 267 104.667 267H93.3333H80V253.667V242.333C80 241.229 79.1045 240.333 78 240.333H53.3333H28.6666C27.5621 240.333 26.6666 241.229 26.6666 242.333V253.667V265C26.6666 266.104 27.5621 267 28.6666 267H53.3333H80V280.333V293.667H66.6666H55.3333C54.2287 293.667 53.3333 294.562 53.3333 295.667V307V318.333C53.3333 319.438 54.2287 320.333 55.3333 320.333H66.6666H80V347V371.667C80 372.771 80.8954 373.667 82 373.667H93.3333H104.667C105.771 373.667 106.667 374.562 106.667 375.667V413.667V453.667H93.3333H82C80.8954 453.667 80 452.771 80 451.667V427V402.333C80 401.229 79.1045 400.333 78 400.333H53.3333H28.6666C27.5621 400.333 26.6666 401.229 26.6666 402.333V413.667V425C26.6666 426.104 27.5621 427 28.6666 427H40H51.3333C52.4379 427 53.3333 427.895 53.3333 429V453.667V478.333C53.3333 479.438 54.2287 480.333 55.3333 480.333H80H106.667V493.667V505C106.667 506.104 105.771 507 104.667 507H93.3333H82C80.8954 507 80 507.895 80 509V533.667V558.333C80 559.438 80.8954 560.333 82 560.333H93.3333H104.667C105.771 560.333 106.667 559.438 106.667 558.333V547V535.667C106.667 534.562 107.562 533.667 108.667 533.667H120H131.333C132.438 533.667 133.333 532.771 133.333 531.667V507V480.333H173.333H213.333V493.667V505C213.333 506.104 212.438 507 211.333 507H200H188.667C187.562 507 186.667 507.895 186.667 509V520.333V533.667H173.333H162C160.895 533.667 160 534.562 160 535.667V547V558.333C160 559.438 159.105 560.333 158 560.333H146.667H135.333C134.229 560.333 133.333 561.229 133.333 562.333V573.667V585C133.333 586.104 134.229 587 135.333 587H186.667H240V613.667V638.333C240 639.438 240.895 640.333 242 640.333H253.333H266.667V653.667V665C266.667 666.104 267.562 667 268.667 667H280H291.333C292.438 667 293.333 667.895 293.333 669V680.333V691.667C293.333 692.771 292.438 693.667 291.333 693.667H266.667H242C240.895 693.667 240 694.562 240 695.667V707V718.333C240 719.438 240.895 720.333 242 720.333H253.333H264.667C265.771 720.333 266.667 721.229 266.667 722.333V733.667V747H253.333H242C240.895 747 240 747.895 240 749V773.667V798.333C240 799.438 240.895 800.333 242 800.333H293.333H344.667C345.771 800.333 346.667 799.438 346.667 798.333V787V773.667H360H371.333C372.438 773.667 373.333 774.562 373.333 775.667V787V798.333C373.333 799.438 374.229 800.333 375.333 800.333H400H424.667C425.771 800.333 426.667 799.438 426.667 798.333V787V775.667C426.667 774.562 427.562 773.667 428.667 773.667H453.333H478C479.105 773.667 480 774.562 480 775.667V787V798.333C480 799.438 480.895 800.333 482 800.333H493.333H504.667C505.771 800.333 506.667 799.438 506.667 798.333V760.333V722.333C506.667 721.229 507.562 720.333 508.667 720.333H520H531.333C532.438 720.333 533.333 721.229 533.333 722.333V747V771.667C533.333 772.771 534.229 773.667 535.333 773.667H546.667H558C559.105 773.667 560 774.562 560 775.667V787V798.333C560 799.438 560.895 800.333 562 800.333H573.333H584.667C585.771 800.333 586.667 799.438 586.667 798.333V773.667V749C586.667 747.895 585.771 747 584.667 747H573.333H562C560.895 747 560 746.104 560 745V720.333V693.667H586.667H611.333C612.438 693.667 613.333 694.562 613.333 695.667V707V718.333C613.333 719.438 614.229 720.333 615.333 720.333H626.667H638C639.105 720.333 640 719.438 640 718.333V707V695.667C640 694.562 640.895 693.667 642 693.667H653.333H664.667C665.771 693.667 666.667 694.562 666.667 695.667V733.667V773.667H653.333H640V760.333V749C640 747.895 639.105 747 638 747H626.667H615.333C614.229 747 613.333 747.895 613.333 749V760.333V771.667C613.333 772.771 614.229 773.667 615.333 773.667H626.667H640V787V798.333C640 799.438 640.895 800.333 642 800.333H653.333H664.667C665.771 800.333 666.667 799.438 666.667 798.333V787V773.667H680H693.333V787V798.333C693.333 799.438 694.229 800.333 695.333 800.333H706.667H718C719.105 800.333 720 799.438 720 798.333V787V775.667C720 774.562 719.105 773.667 718 773.667H706.667H693.333V760.333V749C693.333 747.895 694.229 747 695.333 747H720H746.667V773.667V798.333C746.667 799.438 747.562 800.333 748.667 800.333H760H771.333C772.438 800.333 773.333 799.438 773.333 798.333V773.667V747H786.667H798C799.105 747 800 746.104 800 745V733.667V722.333C800 721.229 799.105 720.333 798 720.333H786.667H773.333V707V693.667H786.667H798C799.105 693.667 800 692.771 800 691.667V667V642.333C800 641.229 799.105 640.333 798 640.333H786.667H773.333V627V615.667C773.333 614.562 774.229 613.667 775.333 613.667H786.667H798C799.105 613.667 800 612.771 800 611.667V600.333V589C800 587.895 799.105 587 798 587H773.333H748.667C747.562 587 746.667 586.104 746.667 585V573.667V560.333H773.333H798C799.105 560.333 800 559.438 800 558.333V520.333V482.333C800 481.229 799.105 480.333 798 480.333H786.667H773.333V453.667V429C773.333 427.895 774.229 427 775.333 427H786.667H798C799.105 427 800 426.104 800 425V413.667V402.333C800 401.229 799.105 400.333 798 400.333H733.333H668.667C667.562 400.333 666.667 401.229 666.667 402.333V413.667V425C666.667 426.104 667.562 427 668.667 427H680H691.333C692.438 427 693.333 427.895 693.333 429V440.333V451.667C693.333 452.771 694.229 453.667 695.333 453.667H706.667H718C719.105 453.667 720 452.771 720 451.667V440.333V429C720 427.895 720.895 427 722 427H733.333H744.667C745.771 427 746.667 427.895 746.667 429V453.667V478.333C746.667 479.438 747.562 480.333 748.667 480.333H760H773.333V493.667V505C773.333 506.104 772.438 507 771.333 507H760H748.667C747.562 507 746.667 507.895 746.667 509V533.667V560.333H733.333H722C720.895 560.333 720 561.229 720 562.333V587V611.667C720 612.771 720.895 613.667 722 613.667H733.333H744.667C745.771 613.667 746.667 614.562 746.667 615.667V627V640.333H720H695.333C694.229 640.333 693.333 639.438 693.333 638.333V600.333V562.333C693.333 561.229 692.438 560.333 691.333 560.333H680H668.667C667.562 560.333 666.667 559.438 666.667 558.333V547V533.667H680H691.333C692.438 533.667 693.333 532.771 693.333 531.667V520.333V507H706.667H718C719.105 507 720 506.104 720 505V493.667V482.333C720 481.229 719.105 480.333 718 480.333H706.667H695.333C694.229 480.333 693.333 481.229 693.333 482.333V493.667V507H680H666.667V493.667V482.333C666.667 481.229 665.771 480.333 664.667 480.333H640H615.333C614.229 480.333 613.333 479.438 613.333 478.333V467V453.667H626.667H638C639.105 453.667 640 452.771 640 451.667V440.333V429C640 427.895 639.105 427 638 427H626.667H613.333V400.333V375.667C613.333 374.562 614.229 373.667 615.333 373.667H626.667H638C639.105 373.667 640 372.771 640 371.667V360.333V349C640 347.895 640.895 347 642 347H666.667H693.333V360.333V371.667C693.333 372.771 694.229 373.667 695.333 373.667H706.667H718C719.105 373.667 720 372.771 720 371.667V360.333V347H733.333H744.667C745.771 347 746.667 347.895 746.667 349V360.333V371.667C746.667 372.771 747.562 373.667 748.667 373.667H773.333H798C799.105 373.667 800 372.771 800 371.667V360.333V349C800 347.895 799.105 347 798 347H786.667H775.333C774.229 347 773.333 346.104 773.333 345V320.333V293.667H786.667H798C799.105 293.667 800 292.771 800 291.667V280.333V269C800 267.895 799.105 267 798 267H786.667H773.333V253.667V242.333C773.333 241.229 772.438 240.333 771.333 240.333H746.667H722C720.895 240.333 720 241.229 720 242.333V253.667V267H706.667H693.333V253.667V242.333C693.333 241.229 692.438 240.333 691.333 240.333H653.333H615.333C614.229 240.333 613.333 241.229 613.333 242.333V253.667V265C613.333 266.104 612.438 267 611.333 267H600H588.667C587.562 267 586.667 266.104 586.667 265V213.667V162.333C586.667 161.229 585.771 160.333 584.667 160.333H560H533.333V147V135.667C533.333 134.562 534.229 133.667 535.333 133.667H546.667H558C559.105 133.667 560 132.771 560 131.667V120.333V107H573.333H584.667C585.771 107 586.667 106.104 586.667 105V66.9999V28.9999C586.667 27.8953 585.771 26.9999 584.667 26.9999H533.333H482C480.895 26.9999 480 27.8953 480 28.9999V40.3332V53.6666H466.667H455.333C454.229 53.6666 453.333 54.562 453.333 55.6666V66.9999V80.3332H426.667H402C400.895 80.3332 400 81.2286 400 82.3332V93.6666V107H373.333H348.667C347.562 107 346.667 107.895 346.667 109V160.333V213.667H333.333H322C320.895 213.667 320 212.771 320 211.667V173.667V135.667C320 134.562 319.105 133.667 318 133.667H306.667H295.333C294.229 133.667 293.333 132.771 293.333 131.667V120.333V109C293.333 107.895 292.438 107 291.333 107H280H266.667V93.6666V82.3332C266.667 81.2286 267.562 80.3332 268.667 80.3332H293.333H318C319.105 80.3332 320 79.4378 320 78.3332V53.6666V28.9999C320 27.8953 319.105 26.9999 318 26.9999H306.667H295.333C294.229 26.9999 293.333 27.8953 293.333 28.9999V40.3332ZM506.667 66.9999V78.3332C506.667 79.4378 505.771 80.3332 504.667 80.3332H493.333H480V93.6666V105C480 106.104 480.895 107 482 107H493.333H504.667C505.771 107 506.667 107.895 506.667 109V133.667V158.333C506.667 159.438 507.562 160.333 508.667 160.333H520H533.333V173.667V187H546.667H558C559.105 187 560 187.895 560 189V200.333V211.667C560 212.771 559.105 213.667 558 213.667H546.667H535.333C534.229 213.667 533.333 212.771 533.333 211.667V200.333V187H520H508.667C507.562 187 506.667 187.895 506.667 189V200.333V211.667C506.667 212.771 505.771 213.667 504.667 213.667H493.333H482C480.895 213.667 480 214.562 480 215.667V227V238.333C480 239.438 480.895 240.333 482 240.333H520H558C559.105 240.333 560 241.229 560 242.333V267V293.667H600H638C639.105 293.667 640 292.771 640 291.667V280.333V269C640 267.895 640.895 267 642 267H666.667H693.333V293.667V320.333H706.667H718C719.105 320.333 720 321.229 720 322.333V333.667V347H706.667H693.333V333.667V320.333H653.333H615.333C614.229 320.333 613.333 321.229 613.333 322.333V333.667V345C613.333 346.104 612.438 347 611.333 347H600H588.667C587.562 347 586.667 346.104 586.667 345V333.667V322.333C586.667 321.229 585.771 320.333 584.667 320.333H573.333H562C560.895 320.333 560 319.438 560 318.333V307V293.667H546.667H535.333C534.229 293.667 533.333 294.562 533.333 295.667V307V318.333C533.333 319.438 532.438 320.333 531.333 320.333H520H508.667C507.562 320.333 506.667 321.229 506.667 322.333V333.667V345C506.667 346.104 507.562 347 508.667 347H520H531.333C532.438 347 533.333 347.895 533.333 349V373.667V398.333C533.333 399.438 534.229 400.333 535.333 400.333H560H584.667C585.771 400.333 586.667 401.229 586.667 402.333V413.667V425C586.667 426.104 587.562 427 588.667 427H600H613.333V440.333V453.667H600H588.667C587.562 453.667 586.667 454.562 586.667 455.667V507V558.333C586.667 559.438 585.771 560.333 584.667 560.333H573.333H562C560.895 560.333 560 561.229 560 562.333V573.667V585C560 586.104 559.105 587 558 587H546.667H535.333C534.229 587 533.333 587.895 533.333 589V600.333V611.667C533.333 612.771 534.229 613.667 535.333 613.667H546.667H558C559.105 613.667 560 614.562 560 615.667V653.667V693.667H533.333H508.667C507.562 693.667 506.667 692.771 506.667 691.667V680.333V669C506.667 667.895 505.771 667 504.667 667H493.333H482C480.895 667 480 666.104 480 665V653.667V642.333C480 641.229 479.105 640.333 478 640.333H440H402C400.895 640.333 400 641.229 400 642.333V653.667V665C400 666.104 400.895 667 402 667H413.333H424.667C425.771 667 426.667 667.895 426.667 669V680.333V691.667C426.667 692.771 427.562 693.667 428.667 693.667H453.333H478C479.105 693.667 480 694.562 480 695.667V720.333V745C480 746.104 479.105 747 478 747H426.667H375.333C374.229 747 373.333 746.104 373.333 745V707V669C373.333 667.895 372.438 667 371.333 667H360H348.667C347.562 667 346.667 667.895 346.667 669V680.333V691.667C346.667 692.771 345.771 693.667 344.667 693.667H333.333H322C320.895 693.667 320 692.771 320 691.667V667V642.333C320 641.229 319.105 640.333 318 640.333H293.333H266.667V613.667V589C266.667 587.895 265.771 587 264.667 587H253.333H240V573.667V562.333C240 561.229 239.105 560.333 238 560.333H213.333H188.667C187.562 560.333 186.667 559.438 186.667 558.333V547V533.667H213.333H238C239.105 533.667 240 532.771 240 531.667V507V480.333H226.667H213.333V467V455.667C213.333 454.562 212.438 453.667 211.333 453.667H186.667H162C160.895 453.667 160 452.771 160 451.667V440.333V429C160 427.895 160.895 427 162 427H200H240V413.667V402.333C240 401.229 239.105 400.333 238 400.333H213.333H188.667C187.562 400.333 186.667 399.438 186.667 398.333V387V375.667C186.667 374.562 187.562 373.667 188.667 373.667H200H211.333C212.438 373.667 213.333 372.771 213.333 371.667V360.333V349C213.333 347.895 212.438 347 211.333 347H186.667H160V373.667V398.333C160 399.438 159.105 400.333 158 400.333H146.667H135.333C134.229 400.333 133.333 399.438 133.333 398.333V373.667V349C133.333 347.895 134.229 347 135.333 347H146.667H160V333.667V322.333C160 321.229 160.895 320.333 162 320.333H186.667H211.333C212.438 320.333 213.333 319.438 213.333 318.333V307V293.667H200H188.667C187.562 293.667 186.667 292.771 186.667 291.667V280.333V267H200H211.333C212.438 267 213.333 267.895 213.333 269V280.333V293.667H226.667H238C239.105 293.667 240 294.562 240 295.667V307V318.333C240 319.438 240.895 320.333 242 320.333H253.333H266.667V307V295.667C266.667 294.562 267.562 293.667 268.667 293.667H280H291.333C292.438 293.667 293.333 292.771 293.333 291.667V280.333V269C293.333 267.895 292.438 267 291.333 267H266.667H242C240.895 267 240 266.104 240 265V253.667V240.333H253.333H264.667C265.771 240.333 266.667 239.438 266.667 238.333V200.333V162.333C266.667 161.229 267.562 160.333 268.667 160.333H280H291.333C292.438 160.333 293.333 161.229 293.333 162.333V200.333V238.333C293.333 239.438 294.229 240.333 295.333 240.333H306.667H318C319.105 240.333 320 241.229 320 242.333V280.333V318.333C320 319.438 319.105 320.333 318 320.333H293.333H266.667V333.667V345C266.667 346.104 267.562 347 268.667 347H280H291.333C292.438 347 293.333 347.895 293.333 349V360.333V371.667C293.333 372.771 294.229 373.667 295.333 373.667H306.667H318C319.105 373.667 320 374.562 320 375.667V387V398.333C320 399.438 319.105 400.333 318 400.333H306.667H295.333C294.229 400.333 293.333 401.229 293.333 402.333V427V451.667C293.333 452.771 292.438 453.667 291.333 453.667H280H268.667C267.562 453.667 266.667 452.771 266.667 451.667V440.333V429C266.667 427.895 265.771 427 264.667 427H253.333H240V453.667V480.333H253.333H264.667C265.771 480.333 266.667 481.229 266.667 482.333V493.667V505C266.667 506.104 267.562 507 268.667 507H293.333H318C319.105 507 320 506.104 320 505V480.333V455.667C320 454.562 320.895 453.667 322 453.667H333.333H344.667C345.771 453.667 346.667 452.771 346.667 451.667V400.333V349C346.667 347.895 347.562 347 348.667 347H373.333H398C399.105 347 400 346.104 400 345V333.667V322.333C400 321.229 400.895 320.333 402 320.333H413.333H424.667C425.771 320.333 426.667 319.438 426.667 318.333V307V295.667C426.667 294.562 425.771 293.667 424.667 293.667H413.333H402C400.895 293.667 400 292.771 400 291.667V280.333V269C400 267.895 399.105 267 398 267H386.667H375.333C374.229 267 373.333 266.104 373.333 265V253.667V242.333C373.333 241.229 372.438 240.333 371.333 240.333H360H348.667C347.562 240.333 346.667 239.438 346.667 238.333V227V213.667H360H371.333C372.438 213.667 373.333 212.771 373.333 211.667V173.667V135.667C373.333 134.562 374.229 133.667 375.333 133.667H386.667H398C399.105 133.667 400 132.771 400 131.667V120.333V107H426.667H451.333C452.438 107 453.333 106.104 453.333 105V93.6666V80.3332H466.667H480V66.9999V53.6666H493.333H504.667C505.771 53.6666 506.667 54.562 506.667 55.6666V66.9999ZM560 80.3332V107H546.667H535.333C534.229 107 533.333 106.104 533.333 105V80.3332V55.6666C533.333 54.562 534.229 53.6666 535.333 53.6666H546.667H558C559.105 53.6666 560 54.562 560 55.6666V80.3332ZM773.333 280.333V293.667H746.667H722C720.895 293.667 720 292.771 720 291.667V280.333V267H746.667H773.333V280.333ZM106.667 307V318.333C106.667 319.438 105.771 320.333 104.667 320.333H93.3333H80V307V293.667H93.3333H104.667C105.771 293.667 106.667 294.562 106.667 295.667V307ZM133.333 467V480.333H120H106.667V467V453.667H120H131.333C132.438 453.667 133.333 454.562 133.333 455.667V467ZM666.667 520.333V533.667H640H615.333C614.229 533.667 613.333 532.771 613.333 531.667V520.333V509C613.333 507.895 614.229 507 615.333 507H640H666.667V520.333ZM666.667 627V665C666.667 666.104 665.771 667 664.667 667H626.667H588.667C587.562 667 586.667 666.104 586.667 665V627V589C586.667 587.895 587.562 587 588.667 587H626.667H664.667C665.771 587 666.667 587.895 666.667 589V627ZM773.333 667V693.667H733.333H695.333C694.229 693.667 693.333 692.771 693.333 691.667V680.333V669C693.333 667.895 694.229 667 695.333 667H720H744.667C745.771 667 746.667 666.104 746.667 665V653.667V640.333H760H773.333V667ZM346.667 747V773.667H333.333H322C320.895 773.667 320 772.771 320 771.667V760.333V749C320 747.895 319.105 747 318 747H306.667H293.333V760.333V771.667C293.333 772.771 292.438 773.667 291.333 773.667H280H268.667C267.562 773.667 266.667 772.771 266.667 771.667V760.333V747H280H293.333V733.667V722.333C293.333 721.229 294.229 720.333 295.333 720.333H320H344.667C345.771 720.333 346.667 721.229 346.667 722.333V747ZM773.333 733.667V747H760H746.667V733.667V722.333C746.667 721.229 747.562 720.333 748.667 720.333H760H773.333V733.667Z" fill="black"/>
<path d="M426.667 173.667V187H413.333H402C400.895 187 400 187.895 400 189V200.333V213.667H386.667H375.333C374.229 213.667 373.333 214.562 373.333 215.667V227V238.333C373.333 239.438 374.229 240.333 375.333 240.333H386.667H400V253.667V265C400 266.105 400.895 267 402 267H440H478C479.104 267 480 266.105 480 265V253.667V242.333C480 241.229 479.104 240.333 478 240.333H440H400V227V213.667H413.333H424.667C425.771 213.667 426.667 212.771 426.667 211.667V200.333V187H440H451.333C452.438 187 453.333 187.895 453.333 189V200.333V211.667C453.333 212.771 454.229 213.667 455.333 213.667H466.667H478C479.104 213.667 480 212.771 480 211.667V200.333V189C480 187.895 480.895 187 482 187H493.333H504.667C505.771 187 506.667 186.105 506.667 185V173.667V162.333C506.667 161.229 505.771 160.333 504.667 160.333H466.667H428.667C427.562 160.333 426.667 161.229 426.667 162.333V173.667Z" fill="black"/>
<path d="M480 307V318.333C480 319.438 480.895 320.333 482 320.333H493.333H504.667C505.771 320.333 506.667 319.438 506.667 318.333V307V295.667C506.667 294.562 505.771 293.667 504.667 293.667H493.333H482C480.895 293.667 480 294.562 480 295.667V307Z" fill="black"/>
<path d="M213.333 333.667V345C213.333 346.105 214.229 347 215.333 347H226.667H238C239.104 347 240 346.105 240 345V333.667V322.333C240 321.229 239.104 320.333 238 320.333H226.667H215.333C214.229 320.333 213.333 321.229 213.333 322.333V333.667Z" fill="black"/>
<path d="M400 360.333V371.667C400 372.771 399.105 373.667 398 373.667H386.667H375.333C374.229 373.667 373.333 374.562 373.333 375.667V400.333V425C373.333 426.105 374.229 427 375.333 427H400H426.667V440.333V451.667C426.667 452.771 427.562 453.667 428.667 453.667H453.333H478C479.105 453.667 480 454.562 480 455.667V467V478.333C480 479.438 479.105 480.333 478 480.333H466.667H455.333C454.229 480.333 453.333 481.229 453.333 482.333V493.667V505C453.333 506.105 454.229 507 455.333 507H466.667H478C479.105 507 480 507.895 480 509V520.333V531.667C480 532.771 479.105 533.667 478 533.667H453.333H428.667C427.562 533.667 426.667 532.771 426.667 531.667V507V482.333C426.667 481.229 425.771 480.333 424.667 480.333H413.333H402C400.895 480.333 400 479.438 400 478.333V467V455.667C400 454.562 399.105 453.667 398 453.667H373.333H348.667C347.562 453.667 346.667 454.562 346.667 455.667V480.333V505C346.667 506.105 345.771 507 344.667 507H333.333H322C320.895 507 320 507.895 320 509V520.333V531.667C320 532.771 320.895 533.667 322 533.667H333.333H344.667C345.771 533.667 346.667 534.562 346.667 535.667V547V558.333C346.667 559.438 347.562 560.333 348.667 560.333H360H371.333C372.438 560.333 373.333 559.438 373.333 558.333V533.667V509C373.333 507.895 374.229 507 375.333 507H386.667H398C399.105 507 400 507.895 400 509V533.667V558.333C400 559.438 400.895 560.333 402 560.333H413.333H424.667C425.771 560.333 426.667 561.229 426.667 562.333V573.667V587H413.333H402C400.895 587 400 587.895 400 589V600.333V611.667C400 612.771 400.895 613.667 402 613.667H413.333H424.667C425.771 613.667 426.667 612.771 426.667 611.667V600.333V587H440H451.333C452.438 587 453.333 587.895 453.333 589V600.333V611.667C453.333 612.771 454.229 613.667 455.333 613.667H480H506.667V640.333V665C506.667 666.105 507.562 667 508.667 667H520H531.333C532.438 667 533.333 666.105 533.333 665V640.333V615.667C533.333 614.562 532.438 613.667 531.333 613.667H520H506.667V600.333V589C506.667 587.895 505.771 587 504.667 587H493.333H482C480.895 587 480 586.105 480 585V573.667V562.333C480 561.229 480.895 560.333 482 560.333H520H558C559.105 560.333 560 559.438 560 558.333V547V535.667C560 534.562 559.105 533.667 558 533.667H533.333H508.667C507.562 533.667 506.667 532.771 506.667 531.667V507V482.333C506.667 481.229 507.562 480.333 508.667 480.333H533.333H558C559.105 480.333 560 479.438 560 478.333V467V455.667C560 454.562 560.895 453.667 562 453.667H573.333H584.667C585.771 453.667 586.667 452.771 586.667 451.667V440.333V429C586.667 427.895 585.771 427 584.667 427H546.667H508.667C507.562 427 506.667 426.105 506.667 425V413.667V402.333C506.667 401.229 505.771 400.333 504.667 400.333H493.333H482C480.895 400.333 480 401.229 480 402.333V413.667V425C480 426.105 479.105 427 478 427H453.333H426.667V387V349C426.667 347.895 425.771 347 424.667 347H413.333H402C400.895 347 400 347.895 400 349V360.333Z" fill="black"/>
<path d="M480 360.333V371.667C480 372.771 480.895 373.667 482 373.667H493.333H504.667C505.771 373.667 506.667 372.771 506.667 371.667V360.333V349C506.667 347.895 505.771 347 504.667 347H493.333H482C480.895 347 480 347.895 480 349V360.333Z" fill="black"/>
<path d="M266.667 560.333V585C266.667 586.104 267.562 587 268.667 587H293.333H320V600.333V611.667C320 612.771 320.895 613.667 322 613.667H333.333H344.667C345.771 613.667 346.667 612.771 346.667 611.667V600.333V589C346.667 587.895 345.771 587 344.667 587H333.333H320V573.667V562.333C320 561.229 319.105 560.333 318 560.333H306.667H295.333C294.229 560.333 293.333 559.438 293.333 558.333V547V535.666C293.333 534.562 292.438 533.666 291.333 533.666H280H268.667C267.562 533.666 266.667 534.562 266.667 535.666V560.333Z" fill="black"/>
<path d="M613.333 627V638.333C613.333 639.438 614.229 640.333 615.333 640.333H626.667H638C639.104 640.333 640 639.438 640 638.333V627V615.667C640 614.562 639.104 613.667 638 613.667H626.667H615.333C614.229 613.667 613.333 614.562 613.333 615.667V627Z" fill="black"/>
<path d="M400 40.3332V51.6665C400 52.7711 400.895 53.6665 402 53.6665H413.333H424.667C425.771 53.6665 426.667 52.7711 426.667 51.6665V40.3332V28.9998C426.667 27.8953 425.771 26.9998 424.667 26.9998H413.333H402C400.895 26.9998 400 27.8953 400 28.9998V40.3332Z" fill="black"/>
<path d="M613.333 120.333V170.666C613.333 194.415 632.585 213.667 656.333 213.667H706.667H757C780.748 213.667 800 194.415 800 170.667V120.333V69.9999C800 46.2516 780.748 26.9998 757 26.9998H706.667H656.333C632.585 26.9998 613.333 46.2516 613.333 69.9998V120.333ZM773.333 120.333V171C773.333 179.836 766.17 187 757.333 187H706.667H656C647.163 187 640 179.836 640 171V120.333V69.6665C640 60.8299 647.163 53.6665 656 53.6665H706.667H757.333C766.17 53.6665 773.333 60.8299 773.333 69.6665V120.333Z" fill="black"/>
<path d="M666.667 120.333V146.333C666.667 154.065 672.935 160.333 680.667 160.333H706.667H732.667C740.398 160.333 746.667 154.065 746.667 146.333V120.333V94.3332C746.667 86.6013 740.398 80.3332 732.667 80.3332H706.667H680.667C672.935 80.3332 666.667 86.6013 666.667 94.3332V120.333Z" fill="black"/>
<path d="M26.6666 360.333V371.667C26.6666 372.771 27.5621 373.667 28.6666 373.667H40H51.3333C52.4379 373.667 53.3333 372.771 53.3333 371.667V360.333V349C53.3333 347.895 52.4379 347 51.3333 347H40H28.6666C27.5621 347 26.6666 347.895 26.6666 349V360.333Z" fill="black"/>
<path d="M26.6666 520.333V531.667C26.6666 532.771 27.5621 533.667 28.6666 533.667H40H51.3333C52.4379 533.667 53.3333 532.771 53.3333 531.667V520.333V509C53.3333 507.895 52.4379 507 51.3333 507H40H28.6666C27.5621 507 26.6666 507.895 26.6666 509V520.333Z" fill="black"/>
<path d="M26.6666 573.667V585C26.6666 586.105 27.5621 587 28.6666 587H40H51.3333C52.4379 587 53.3333 586.105 53.3333 585V573.667V562.333C53.3333 561.229 52.4379 560.333 51.3333 560.333H40H28.6666C27.5621 560.333 26.6666 561.229 26.6666 562.333V573.667Z" fill="black"/>
<path d="M26.6666 707V757.333C26.6666 781.081 45.9184 800.333 69.6666 800.333H120H170.333C194.082 800.333 213.333 781.081 213.333 757.333V707V656.667C213.333 632.918 194.082 613.667 170.333 613.667H120H69.6666C45.9184 613.667 26.6666 632.918 26.6666 656.667V707ZM186.667 707V757.667C186.667 766.503 179.503 773.667 170.667 773.667H120H69.3333C60.4967 773.667 53.3333 766.503 53.3333 757.667V707V656.333C53.3333 647.497 60.4967 640.333 69.3333 640.333H120H170.667C179.503 640.333 186.667 647.497 186.667 656.333V707Z" fill="black"/>
<path d="M80 707V733C80 740.732 86.268 747 94 747H120H146C153.732 747 160 740.732 160 733V707V681C160 673.268 153.732 667 146 667H120H94C86.268 667 80 673.268 80 681V707Z" fill="black"/>
</svg>
