<svg width="638" height="231" viewBox="0 0 638 231" fill="none" xmlns="http://www.w3.org/2000/svg">
<path d="M92.352 204.173C84.1984 196.352 80.1216 184.621 80.1216 168.979C80.1216 151.507 85.8624 133.453 97.344 114.816C103.667 104.499 112.237 96.0128 123.053 89.3568C133.869 82.7008 145.683 79.3728 158.496 79.3728C164.154 79.3728 170.227 80.3712 176.717 82.368C189.363 61.568 199.68 46.5088 207.667 37.1904C215.654 27.872 222.56 20.8 228.384 15.9744C241.53 5.3248 254.842 0 268.32 0C270.982 0 272.314 1.3312 272.314 3.9936C261.331 28.1216 252.845 52.4992 246.854 77.1264C241.03 101.587 236.454 125.466 233.126 148.762C229.965 171.891 228.384 191.526 228.384 207.667C228.384 209.997 227.219 211.162 224.89 211.162C219.066 211.162 216.154 204.506 216.154 191.194C216.154 174.387 214.573 159.162 211.411 145.517C205.587 119.558 195.437 102.419 180.96 94.0992C179.13 97.5936 175.635 104.25 170.477 114.067C165.485 123.885 161.741 131.123 159.245 135.782C156.915 140.275 153.338 146.682 148.512 155.002C143.853 163.155 139.859 169.728 136.531 174.72C128.544 186.701 119.891 197.184 110.573 206.17C112.237 206.669 114.234 206.918 116.563 206.918C130.541 206.918 142.106 202.342 151.258 193.19C160.41 183.872 166.733 172.89 170.227 160.243C170.726 158.413 172.058 157.581 174.221 157.747C175.552 157.914 176.051 158.579 175.718 159.744C172.058 174.054 165.069 186.618 154.752 197.434C144.602 208.083 131.789 213.408 116.314 213.408C112.819 213.408 108.909 212.826 104.582 211.661C89.2736 223.974 72.9664 230.131 55.6608 230.131C33.1968 230.131 17.2224 221.312 7.7376 203.674C2.5792 194.189 0 183.955 0 172.973C0 167.149 0.7488 161.075 2.2464 154.752C6.24 137.613 14.3936 125.382 26.7072 118.061C32.864 114.4 39.6032 112.57 46.9248 112.57C49.2544 112.57 51.168 113.318 52.6656 114.816C54.1632 116.147 55.2448 118.31 55.9104 121.306C46.0928 121.306 37.2736 124.8 29.4528 131.789C16.3072 143.27 9.7344 159.578 9.7344 180.71C9.7344 193.523 13.5616 203.507 21.216 210.662C29.0368 217.984 39.4368 221.645 52.416 221.645C65.5616 221.645 78.8736 215.821 92.352 204.173ZM158.246 88.3584C144.269 88.3584 131.706 92.9344 120.557 102.086C109.408 111.238 101.254 121.971 96.096 134.285C90.9376 146.432 88.3584 158.746 88.3584 171.226C88.3584 183.706 91.52 193.19 97.8432 199.68C104.166 193.69 110.906 185.869 118.061 176.218C125.216 166.4 130.874 158.163 135.034 151.507C139.194 144.851 145.683 134.035 154.502 119.059C163.322 104.083 169.062 94.432 171.725 90.1056C167.731 88.9408 163.238 88.3584 158.246 88.3584ZM255.341 9.7344C242.029 13.2288 229.882 21.4656 218.899 34.4448C207.917 47.424 196.685 64.6464 185.203 86.112C201.344 94.9312 212.659 112.57 219.149 139.027C222.144 110.739 226.97 84.7808 233.626 61.152C240.448 37.3568 247.686 20.2176 255.341 9.7344Z" fill="black"/>
<path d="M579.832 211.573H563.832L583.632 109.573H599.632L595.832 128.773H596.232C600.365 121.706 605.032 116.373 610.232 112.773C615.432 109.039 621.765 107.173 629.232 107.173C632.165 107.173 634.832 107.373 637.232 107.773L634.032 123.373C631.898 122.973 629.832 122.773 627.832 122.773C618.632 122.773 610.565 125.973 603.632 132.373C596.698 138.773 592.298 146.973 590.432 156.973L579.832 211.573Z" fill="black"/>
<path d="M507.662 214.573C494.195 214.573 483.862 210.839 476.662 203.373C469.462 195.773 465.862 185.239 465.862 171.773C465.862 159.639 468.462 148.639 473.662 138.773C478.862 128.773 486.062 120.906 495.262 115.173C504.462 109.439 514.728 106.573 526.062 106.573C539.395 106.573 549.328 109.973 555.862 116.773C562.528 123.573 565.862 132.839 565.862 144.573C565.862 149.773 565.062 156.506 563.462 164.773H482.862C482.595 167.706 482.462 169.973 482.462 171.573C482.462 181.039 484.528 188.239 488.662 193.173C492.795 198.106 499.528 200.573 508.862 200.573C517.928 200.573 525.395 198.439 531.262 194.173C537.128 189.773 541.128 185.106 543.262 180.173H559.862C554.928 190.706 548.062 199.106 539.262 205.373C530.462 211.506 519.928 214.573 507.662 214.573ZM548.862 150.773C549.262 148.373 549.462 145.973 549.462 143.573C549.462 136.639 547.395 131.039 543.262 126.773C539.128 122.506 532.928 120.373 524.662 120.373C514.662 120.373 506.262 123.106 499.462 128.573C492.662 133.906 487.928 141.306 485.262 150.773H548.862Z" fill="black"/>
<path d="M450.804 109.573H466.804L447.004 211.573H431.004L450.804 109.573ZM456.804 70.5725H476.004L472.204 89.7725H453.004L456.804 70.5725Z" fill="black"/>
<path d="M427.546 68.5725H443.546L415.746 211.573H399.746L427.546 68.5725Z" fill="black"/>
<path d="M343.576 214.573C330.109 214.573 319.776 210.839 312.576 203.373C305.376 195.773 301.776 185.239 301.776 171.773C301.776 159.639 304.376 148.639 309.576 138.773C314.776 128.773 321.976 120.906 331.176 115.173C340.376 109.439 350.642 106.573 361.976 106.573C375.309 106.573 385.242 109.973 391.776 116.773C398.442 123.573 401.776 132.839 401.776 144.573C401.776 149.773 400.976 156.506 399.376 164.773H318.776C318.509 167.706 318.376 169.973 318.376 171.573C318.376 181.039 320.442 188.239 324.576 193.173C328.709 198.106 335.442 200.573 344.776 200.573C353.842 200.573 361.309 198.439 367.176 194.173C373.042 189.773 377.042 185.106 379.176 180.173H395.776C390.842 190.706 383.976 199.106 375.176 205.373C366.376 211.506 355.842 214.573 343.576 214.573ZM384.776 150.773C385.176 148.373 385.376 145.973 385.376 143.573C385.376 136.639 383.309 131.039 379.176 126.773C375.042 122.506 368.842 120.373 360.576 120.373C350.576 120.373 342.176 123.106 335.376 128.573C328.576 133.906 323.842 141.306 321.176 150.773H384.776Z" fill="black"/>
<path d="M280.954 212.573C274.02 212.573 268.687 211.173 264.954 208.373C261.22 205.439 259.354 200.506 259.354 193.573C259.354 191.306 259.687 188.173 260.354 184.173L272.154 123.573H257.154L259.954 109.573H274.954L281.554 75.5725H297.554L290.954 109.573H310.954L308.154 123.573H288.154L276.154 184.973C275.754 187.106 275.554 188.973 275.554 190.573C275.554 193.373 276.354 195.439 277.954 196.773C279.554 197.973 282.22 198.573 285.954 198.573C287.82 198.573 290.754 198.373 294.754 197.973L291.954 211.573C287.82 212.239 284.154 212.573 280.954 212.573Z" fill="black"/>
</svg>
