<svg width="693" height="239" viewBox="0 0 693 239" fill="none" xmlns="http://www.w3.org/2000/svg">
<path d="M272.32 2.19739C273.96 2.19744 275.557 2.60854 276.729 3.78137C277.902 4.95423 278.313 6.55121 278.313 8.19055V8.62512L278.134 9.01965C267.201 33.0382 258.757 57.2967 252.798 81.796C246.989 106.194 242.426 130.004 239.107 153.229L239.108 153.23C235.954 176.305 234.384 195.844 234.384 211.864C234.384 213.337 234.014 214.81 232.925 215.9C231.835 216.989 230.363 217.359 228.89 217.359C227.024 217.359 225.318 216.816 223.855 215.702C222.42 214.608 221.327 213.047 220.505 211.169C218.881 207.458 218.153 202.131 218.153 195.391C218.153 178.707 216.584 163.636 213.463 150.165L213.46 150.152C207.939 125.544 198.589 109.396 185.739 101.113C183.757 104.894 180.597 110.913 176.259 119.17L176.26 119.171C171.275 128.974 167.526 136.22 165.02 140.9C162.668 145.435 159.072 151.875 154.242 160.202C149.574 168.371 145.557 174.984 142.195 180.026C134.937 190.915 127.121 200.592 118.747 209.054C119.319 209.093 119.924 209.115 120.563 209.115C134.057 209.115 145.099 204.719 153.844 195.974C162.75 186.902 168.897 176.223 172.3 163.908C172.653 162.617 173.364 161.483 174.54 160.748C175.683 160.034 177.026 159.847 178.374 159.95L178.422 159.954L178.469 159.96C179.355 160.071 180.466 160.399 181.193 161.368C181.952 162.379 181.898 163.545 181.654 164.436L181.656 164.437C177.91 179.083 170.749 191.949 160.199 203.01C149.65 214.078 136.304 219.606 120.313 219.606C116.877 219.606 113.118 219.075 109.047 218.045C93.659 230.187 77.1838 236.328 59.6611 236.328C48.1683 236.328 38.2094 234.072 29.8652 229.465C21.5113 224.853 14.8861 217.946 9.98047 208.826C4.65984 199.043 2 188.48 2 177.17C2.00001 171.174 2.77052 164.945 4.2998 158.488C8.38733 140.952 16.8019 128.199 29.6846 120.539C36.1577 116.69 43.2518 114.767 50.9248 114.767C53.7266 114.767 56.1681 115.687 58.0801 117.599H58.0791C59.9676 119.323 61.1616 121.916 61.8623 125.069L62.4033 127.503H59.9102C50.6197 127.503 42.2666 130.792 34.7852 137.478L34.7773 137.485L34.7686 137.492C22.1488 148.515 15.7345 164.219 15.7344 184.907C15.7344 196.912 19.1933 206.113 25.9209 212.763L26.582 213.399L26.583 213.4C33.958 220.304 43.831 223.842 56.416 223.842C68.4212 223.842 80.7435 218.744 93.416 208.231C85.7916 199.956 82.1221 188.165 82.1221 173.177C82.1221 155.252 88.0131 136.84 99.6387 117.968C106.134 107.37 114.935 98.663 126.005 91.8507C137.139 84.999 149.317 81.5704 162.496 81.5704C167.945 81.5704 173.72 82.4607 179.812 84.2111C192.108 64.0657 202.223 49.3319 210.148 40.0861C218.17 30.7275 225.16 23.5605 231.108 18.632L231.116 18.6251L231.125 18.6173C244.534 7.75465 258.277 2.19739 272.32 2.19739ZM162.246 94.5558C148.747 94.5559 136.629 98.961 125.826 107.829C114.909 116.791 106.963 127.266 101.94 139.255L101.937 139.264C96.877 151.178 94.3584 163.227 94.3584 175.423C94.3584 186.618 96.9694 195.053 101.941 200.999C107.731 195.309 113.904 188.059 120.454 179.224C127.59 169.432 133.215 161.242 137.338 154.645C141.483 148.013 147.961 137.216 156.779 122.241C164.27 109.522 169.547 100.63 172.605 95.5773C169.475 94.9013 166.025 94.5558 162.246 94.5558ZM254.526 17.5519C243.736 21.5566 233.698 28.9755 224.426 39.9337C213.855 52.4259 203.006 68.9486 191.887 89.5402C205.673 97.7636 215.757 112.327 222.322 132.888C225.355 108.402 229.813 85.7069 235.7 64.8068L235.703 64.798C241.606 44.2095 247.865 28.4179 254.526 17.5519Z" fill="black" stroke="black" stroke-width="4"/>
<path d="M680.232 109.37C682.71 109.37 686.024 109.574 688.56 109.997L690.608 110.339L690.191 112.372L686.991 127.971L686.598 129.887L684.673 129.538C682.565 129.154 680.887 128.969 678.832 128.969C661.196 128.969 647.055 142.672 643.395 161.551V161.552L632.794 216.151L632.481 217.77H612.406L612.869 215.388L632.668 113.388L632.983 111.77H653.066L652.593 114.158L650.559 124.431C653.245 120.966 656.205 117.973 659.577 115.588C665.235 111.584 671.944 109.37 680.232 109.37Z" fill="black" stroke="black" stroke-width="4"/>
<path d="M569.062 108.77C583.236 108.77 593.768 112.784 600.747 119.977C607.714 127.158 610.861 137.222 610.861 148.77C610.861 153.753 609.836 162.094 608.425 169.352L608.11 170.97H527.693C527.562 172.545 527.461 174.11 527.461 175.77C527.461 184.664 529.23 191.352 532.989 195.805C536.69 200.188 542.636 202.77 551.861 202.77C571.474 202.77 581.466 190.234 584.434 183.558L584.962 182.37H606.011L604.672 185.221C595.008 205.783 577.179 220.77 550.661 220.77C536.564 220.77 525.533 216.592 518.038 208.724C510.558 200.872 506.861 189.616 506.861 175.97C506.861 138.442 532.989 108.77 569.062 108.77ZM567.661 126.57C557.87 126.57 549.771 129.442 543.508 134.434C537.846 138.946 533.594 145.265 530.978 152.97H590.154C591.184 145.581 590.074 139.201 586.83 134.626C583.4 129.789 577.296 126.57 567.661 126.57Z" fill="black" stroke="black" stroke-width="4"/>
<path d="M504.229 111.77L503.767 114.151L483.967 216.151L483.653 217.77H463.578L464.041 215.389L483.841 113.389L484.155 111.77H504.229ZM513.438 72.7699L512.966 75.1586L509.166 94.3578L508.846 95.9701H485.569L486.042 93.5814L489.842 74.3812L490.161 72.7699H513.438Z" fill="black" stroke="black" stroke-width="4"/>
<path d="M472.972 70.7699L472.51 73.1517L444.709 216.152L444.394 217.77H424.32L424.783 215.388L452.583 72.3881L452.897 70.7699H472.972Z" fill="black" stroke="black" stroke-width="4"/>
<path d="M380.976 108.77C395.15 108.77 405.682 112.784 412.661 119.977C419.628 127.158 422.775 137.222 422.775 148.77C422.775 153.753 421.75 162.094 420.339 169.352L420.024 170.97H339.607C339.476 172.545 339.375 174.11 339.375 175.77C339.375 184.664 341.144 191.352 344.903 195.805C348.604 200.188 354.55 202.77 363.775 202.77C383.388 202.77 393.38 190.234 396.348 183.558L396.876 182.37H417.925L416.585 185.221C406.921 205.783 389.093 220.77 362.575 220.77C348.478 220.77 337.447 216.592 329.952 208.724C322.472 200.872 318.775 189.616 318.775 175.97C318.775 138.442 344.903 108.77 380.976 108.77ZM379.575 126.57C369.784 126.57 361.685 129.442 355.422 134.434C349.76 138.946 345.508 145.265 342.892 152.97H402.068C403.098 145.581 401.988 139.201 398.744 134.626C395.314 129.789 389.21 126.57 379.575 126.57Z" fill="black" stroke="black" stroke-width="4"/>
<path d="M310.979 77.7699L310.517 80.1508L304.379 111.77H324.393L323.914 114.162L321.115 128.162L320.793 129.77H300.801L289.116 189.553L289.115 189.562L289.114 189.57C288.114 194.466 288.37 197.088 289.35 198.509C290.244 199.806 292.253 200.77 296.953 200.77C299.836 200.77 301.536 200.582 305.555 200.18L308.261 199.91L307.712 202.574L304.912 216.173L304.634 217.527L303.27 217.745C298.182 218.559 295.075 218.77 291.953 218.77C284.08 218.77 277.122 217.152 272.788 212.125C268.439 207.08 267.248 199.207 269.389 187.995L269.391 187.988L280.727 129.77H265.714L266.193 127.377L268.992 113.377L269.314 111.77H284.305L290.59 79.389L290.905 77.7699H310.979Z" fill="black" stroke="black" stroke-width="4"/>
</svg>
