<svg width="691" height="237" viewBox="0 0 691 237" fill="none" xmlns="http://www.w3.org/2000/svg">
<path d="M271.32 2.19727C272.883 2.19732 274.33 2.58876 275.376 3.63477C276.422 4.68079 276.813 6.12818 276.813 7.69043V8.0166L276.679 8.3125C265.735 32.3559 257.279 56.6413 251.312 81.1699L251.313 81.1709C245.499 105.59 240.932 129.423 237.611 152.671C234.456 175.756 232.884 195.316 232.884 211.364C232.884 212.76 232.534 214.083 231.571 215.046C230.608 216.009 229.286 216.358 227.89 216.358C226.126 216.358 224.528 215.847 223.158 214.804C221.808 213.775 220.761 212.292 219.963 210.468C218.381 206.852 217.653 201.61 217.653 194.891C217.653 178.176 216.082 163.067 212.95 149.553L212.947 149.542C207.349 124.588 197.798 108.194 184.55 99.8994C182.587 103.644 179.339 109.832 174.805 118.462C169.816 128.272 166.07 135.517 163.567 140.188L163.566 140.188C161.221 144.71 157.634 151.132 152.813 159.442C148.146 167.611 144.134 174.217 140.779 179.249C133.32 190.438 125.274 200.341 116.642 208.955C117.53 209.06 118.503 209.115 119.563 209.115C133.178 209.115 144.351 204.674 153.197 195.827C162.165 186.693 168.356 175.939 171.781 163.541C172.109 162.344 172.757 161.327 173.805 160.672C174.701 160.112 175.751 159.903 176.858 159.926L177.336 159.949L177.371 159.951L177.407 159.956C178.238 160.06 179.186 160.358 179.794 161.168C180.426 162.011 180.394 163.002 180.171 163.812C176.562 177.92 169.771 190.366 159.812 201.13L158.838 202.166C148.388 213.129 135.175 218.605 119.313 218.605C115.86 218.605 112.062 218.061 107.929 216.999C92.5616 229.182 76.1296 235.328 58.6611 235.328C47.2337 235.328 37.3623 233.085 29.1074 228.527C20.8433 223.965 14.2812 217.129 9.41602 208.081V208.08C4.13854 198.373 1.5 187.895 1.5 176.67C1.50001 170.719 2.26457 164.53 3.78516 158.108C7.84879 140.669 16.1987 128.045 28.9404 120.469C35.3345 116.667 42.3396 114.767 49.9248 114.767C52.6085 114.767 54.9182 115.644 56.7266 117.452H56.7256C58.5172 119.079 59.6834 121.566 60.375 124.678L60.7803 126.503H58.9102C49.4879 126.503 41.0184 129.843 33.4521 136.604L33.4463 136.61L33.4395 136.616C20.6884 147.753 14.2345 163.608 14.2344 184.407C14.2344 196.904 17.9552 206.454 25.2402 213.264L25.2412 213.265C32.7276 220.273 42.7325 223.842 55.416 223.842C67.7011 223.842 80.2698 218.571 93.1445 207.778C85.3877 199.608 81.6221 187.824 81.6221 172.677C81.6221 154.865 87.4766 136.541 99.0674 117.727C105.52 107.2 114.261 98.5489 125.267 91.7764C136.321 84.9735 148.408 81.5703 161.496 81.5703C166.999 81.5703 172.849 82.487 179.039 84.2969C191.422 63.9901 201.587 49.1754 209.528 39.9111C217.541 30.5628 224.51 23.4194 230.427 18.5166L230.434 18.5117L230.439 18.5059C243.782 7.69639 257.418 2.19727 271.32 2.19727ZM161.246 93.5557C147.628 93.5557 135.399 98.004 124.509 106.943C113.533 115.953 105.536 126.491 100.479 138.562L100.477 138.568C95.3923 150.541 92.8584 162.656 92.8584 174.923C92.8584 186.451 95.6078 195.149 100.908 201.233C106.833 195.464 113.15 188.066 119.855 179.021C126.996 169.223 132.629 161.021 136.762 154.409C140.91 147.771 147.392 136.97 156.21 121.995C164.004 108.76 169.4 99.6715 172.393 94.7422C169.043 93.9561 165.33 93.5557 161.246 93.5557ZM254.714 16.0967C243.308 20.007 232.748 27.6435 223.044 39.1113C212.372 51.724 201.428 68.4198 190.219 89.2275C204.569 97.6103 214.956 112.887 221.536 134.765C224.57 109.414 229.117 85.9723 235.182 64.4424L235.184 64.4355C241.309 43.0713 247.807 26.9227 254.714 16.0967Z" fill="black" stroke="black" stroke-width="3"/>
<path d="M679.232 109.37C681.69 109.37 684.976 109.573 687.478 109.99L689.014 110.246L688.701 111.771L685.5 127.371L685.207 128.809L683.763 128.546C681.631 128.158 679.923 127.97 677.832 127.97C659.905 127.97 645.599 141.897 641.904 160.956L631.304 215.556L631.068 216.771H612.012L612.359 214.984L632.159 112.984L632.395 111.771H651.458L651.103 113.562L648.64 126.005C651.65 121.812 654.984 118.242 658.865 115.496C664.433 111.556 671.041 109.37 679.232 109.37Z" fill="black" stroke="black" stroke-width="3"/>
<path d="M568.062 108.77C582.142 108.77 592.529 112.756 599.388 119.826C606.238 126.886 609.361 136.809 609.361 148.27C609.361 153.207 608.342 161.513 606.934 168.756L606.697 169.97H526.234C526.084 171.705 525.961 173.429 525.961 175.27C525.961 184.215 527.738 191.044 531.607 195.627C535.433 200.159 541.542 202.77 550.861 202.77C570.721 202.77 580.865 190.068 583.891 183.261L584.286 182.37H604.224L603.219 184.508C593.621 204.93 575.95 219.77 549.661 219.77C535.663 219.77 524.778 215.624 517.4 207.879C510.034 200.146 506.361 189.03 506.361 175.47C506.361 138.174 532.307 108.77 568.062 108.77ZM566.661 125.57C556.768 125.57 548.556 128.475 542.196 133.543C536.288 138.253 531.907 144.889 529.285 152.97H589.586C590.731 145.32 589.642 138.639 586.237 133.837C582.689 128.834 576.412 125.57 566.661 125.57Z" fill="black" stroke="black" stroke-width="3"/>
<path d="M502.623 111.77L502.276 113.556L482.476 215.556L482.241 216.77H463.184L463.531 214.984L483.331 112.984L483.567 111.77H502.623ZM511.83 72.77L511.475 74.561L507.676 93.7612L507.436 94.9702H485.177L485.532 93.1792L489.332 73.979L489.571 72.77H511.83Z" fill="black" stroke="black" stroke-width="3"/>
<path d="M471.366 70.77L471.018 72.5562L443.219 215.556L442.982 216.77H423.927L424.273 214.984L452.073 71.9839L452.309 70.77H471.366Z" fill="black" stroke="black" stroke-width="3"/>
<path d="M379.976 108.77C394.056 108.77 404.443 112.756 411.302 119.826C418.152 126.886 421.275 136.809 421.275 148.27C421.275 153.207 420.256 161.513 418.848 168.756L418.612 169.97H338.148C337.998 171.705 337.875 173.429 337.875 175.27C337.875 184.215 339.652 191.044 343.521 195.627C347.347 200.159 353.456 202.77 362.775 202.77C382.635 202.77 392.779 190.068 395.805 183.261L396.2 182.37H416.138L415.133 184.508C405.535 204.93 387.864 219.77 361.575 219.77C347.577 219.77 336.692 215.624 329.314 207.879C321.948 200.146 318.275 189.03 318.275 175.47C318.275 138.174 344.221 108.77 379.976 108.77ZM378.575 125.57C368.682 125.57 360.47 128.475 354.11 133.543C348.202 138.253 343.82 144.889 341.198 152.97H401.5C402.645 145.32 401.556 138.639 398.151 133.837C394.604 128.834 388.326 125.57 378.575 125.57Z" fill="black" stroke="black" stroke-width="3"/>
<path d="M309.372 77.77L309.026 79.5562L302.773 111.77H322.783L322.424 113.564L319.624 127.564L319.383 128.77H299.388L287.625 188.958L287.623 188.97C286.624 193.868 286.828 196.684 287.939 198.293C288.985 199.81 291.229 200.77 295.953 200.77C298.866 200.77 300.591 200.579 304.605 200.177L306.634 199.974L306.223 201.972L303.423 215.573L303.214 216.587L302.191 216.751C297.125 217.562 294.045 217.77 290.953 217.77C283.123 217.77 276.355 216.157 272.167 211.299C267.968 206.428 266.75 198.748 268.88 187.588L268.881 187.583L280.333 128.77H265.323L265.683 126.976L268.483 112.976L268.724 111.77H283.716L290.081 78.9839L290.317 77.77H309.372Z" fill="black" stroke="black" stroke-width="3"/>
</svg>
