<svg width="216" height="106" viewBox="0 0 216 106" fill="none" xmlns="http://www.w3.org/2000/svg">
<g filter="url(#filter0_d_2_25)">
<path d="M41.9678 75.0204C39.5869 72.7366 38.3964 69.311 38.3964 64.7435C38.3964 59.6415 40.0728 54.3694 43.4255 48.9272C45.272 45.9146 47.7744 43.4365 50.9328 41.4929C54.0912 39.5492 57.5411 38.5774 61.2826 38.5774C62.9347 38.5774 64.7082 38.869 66.6033 39.4521C70.2961 33.3782 73.3088 28.9808 75.6411 26.2597C77.9735 23.5386 79.99 21.4735 81.6906 20.0644C85.5293 16.9546 89.4166 15.3997 93.3524 15.3997C94.1298 15.3997 94.5186 15.7884 94.5186 16.5659C91.3116 23.6115 88.8335 30.73 87.0842 37.9215C85.3835 45.0643 84.0473 52.037 83.0755 58.8397C82.1523 65.5938 81.6906 71.3275 81.6906 76.0408C81.6906 76.7211 81.3505 77.0612 80.6702 77.0612C78.9696 77.0612 78.1192 75.1176 78.1192 71.2303C78.1192 66.3227 77.6576 61.8766 76.7344 57.8922C75.0337 50.3121 72.0697 45.3072 67.8423 42.8777C67.3078 43.8981 66.2874 45.8417 64.7811 48.7086C63.3234 51.5754 62.2301 53.6891 61.5012 55.0497C60.821 56.3616 59.7763 58.2323 58.3671 60.6619C57.0066 63.0428 55.8404 64.9621 54.8686 66.4199C52.5363 69.9184 50.0096 72.9796 47.2885 75.6035C47.7744 75.7493 48.3575 75.8221 49.0377 75.8221C53.1193 75.8221 56.4964 74.4859 59.1689 71.8134C61.8414 69.0923 63.6878 65.8854 64.7082 62.1925C64.854 61.658 65.2427 61.415 65.8744 61.4636C66.2631 61.5122 66.4089 61.7066 66.3117 62.0467C65.2427 66.2255 63.2019 69.8941 60.1893 73.0525C57.2253 76.1623 53.4838 77.7172 48.9649 77.7172C47.9444 77.7172 46.8026 77.5471 45.5392 77.207C41.0689 80.8027 36.307 82.6005 31.2536 82.6005C24.6938 82.6005 20.0291 80.0252 17.2595 74.8746C15.7532 72.105 15 69.1166 15 65.9097C15 64.209 15.2187 62.4354 15.656 60.589C16.8221 55.5842 19.2031 52.0127 22.7988 49.8748C24.5966 48.8058 26.5646 48.2713 28.7026 48.2713C29.3828 48.2713 29.9416 48.4899 30.3789 48.9272C30.8163 49.316 31.1321 49.9476 31.3265 50.8223C28.4596 50.8223 25.8843 51.8427 23.6005 53.8835C19.7619 57.2362 17.8426 61.9981 17.8426 68.1691C17.8426 71.9106 18.9601 74.826 21.1953 76.9154C23.4791 79.0534 26.516 80.1224 30.306 80.1224C34.1447 80.1224 38.032 78.4217 41.9678 75.0204ZM61.2097 41.2013C57.1281 41.2013 53.4595 42.5376 50.2039 45.2101C46.9483 47.8825 44.5674 51.0166 43.0611 54.6123C41.5548 58.1595 40.8016 61.7552 40.8016 65.3995C40.8016 69.0438 41.7248 71.8134 43.5713 73.7085C45.4177 71.9592 47.3857 69.6754 49.4751 66.8572C51.5645 63.9903 53.2165 61.5851 54.4313 59.6415C55.6461 57.6978 57.5411 54.5395 60.1164 50.1663C62.6917 45.7931 64.3681 42.9749 65.1455 41.7115C63.9794 41.3714 62.6674 41.2013 61.2097 41.2013ZM89.5623 18.2422C85.6751 19.2627 82.128 21.6679 78.921 25.458C75.714 29.248 72.4341 34.2772 69.0814 40.5454C73.7947 43.1207 77.0988 48.2713 78.9939 55.9972C79.8685 47.7368 81.2776 40.1566 83.2212 33.2568C85.2135 26.3083 87.3272 21.3035 89.5623 18.2422Z" fill="#1C1C1C"/>
</g>
<g filter="url(#filter1_d_2_25)">
<path d="M104.985 51.2972H99.1443L95.6402 69.2266C95.0562 72.0884 95.6986 73.198 98.5019 73.198C99.3779 73.198 99.9036 73.1396 101.072 73.0228L100.254 76.9941C98.7939 77.2277 97.9179 77.2862 97.0418 77.2862C92.5449 77.2862 89.8 75.4173 91.0264 68.993L94.4722 51.2972H90.092L90.9096 47.209H95.2898L97.2171 37.2806H101.889L99.962 47.209H105.802L104.985 51.2972ZM131.622 63.328H108.086C108.028 63.9704 107.969 64.6129 107.969 65.3137C107.969 70.6283 110.072 73.782 115.679 73.782C121.694 73.782 124.789 69.9275 125.724 67.825H130.571C127.826 73.6652 122.804 77.8702 115.328 77.8702C107.327 77.8702 103.122 73.1396 103.122 65.3721C103.122 54.6845 110.539 46.333 120.701 46.333C128.761 46.333 132.323 50.8884 132.323 57.4294C132.323 58.8311 132.031 61.2255 131.622 63.328ZM120.292 50.3627C114.335 50.3627 110.306 53.8669 108.787 59.2399H127.359C128.235 54.3341 126.191 50.3627 120.292 50.3627ZM136.403 76.9941H131.73L139.848 35.2366H144.521L136.403 76.9941ZM152.889 41.4272H147.282L148.392 35.8206H153.999L152.889 41.4272ZM145.53 76.9941H140.858L146.64 47.209H151.312L145.53 76.9941ZM179.537 63.328H156.001C155.943 63.9704 155.884 64.6129 155.884 65.3137C155.884 70.6283 157.987 73.782 163.593 73.782C169.609 73.782 172.704 69.9275 173.639 67.825H178.486C175.741 73.6652 170.719 77.8702 163.243 77.8702C155.242 77.8702 151.037 73.1396 151.037 65.3721C151.037 54.6845 158.454 46.333 168.616 46.333C176.676 46.333 180.238 50.8884 180.238 57.4294C180.238 58.8311 179.946 61.2255 179.537 63.328ZM168.207 50.3627C162.25 50.3627 158.22 53.8669 156.702 59.2399H175.274C176.15 54.3341 174.106 50.3627 168.207 50.3627ZM198.743 46.5082C199.444 46.5082 200.378 46.5666 201.079 46.6834L200.145 51.2388C199.502 51.122 198.977 51.0636 198.334 51.0636C192.844 51.0636 188.523 55.3269 187.413 61.0503L184.318 76.9941H179.645L185.427 47.209H190.099L188.99 52.8156H189.107C191.384 48.9611 194.129 46.5082 198.743 46.5082Z" fill="#1C1C1C"/>
</g>
<defs>
<filter id="filter0_d_2_25" x="0.929053" y="1.32875" width="107.66" height="95.3427" filterUnits="userSpaceOnUse" color-interpolation-filters="sRGB">
<feFlood flood-opacity="0" result="BackgroundImageFix"/>
<feColorMatrix in="SourceAlpha" type="matrix" values="0 0 0 0 0 0 0 0 0 0 0 0 0 0 0 0 0 0 127 0" result="hardAlpha"/>
<feOffset/>
<feGaussianBlur stdDeviation="7.03547"/>
<feComposite in2="hardAlpha" operator="out"/>
<feColorMatrix type="matrix" values="0 0 0 0 1 0 0 0 0 1 0 0 0 0 1 0 0 0 0.5 0"/>
<feBlend mode="normal" in2="BackgroundImageFix" result="effect1_dropShadow_2_25"/>
<feBlend mode="normal" in="SourceGraphic" in2="effect1_dropShadow_2_25" result="shape"/>
</filter>
<filter id="filter1_d_2_25" x="75.729" y="21.1656" width="139.421" height="70.7755" filterUnits="userSpaceOnUse" color-interpolation-filters="sRGB">
<feFlood flood-opacity="0" result="BackgroundImageFix"/>
<feColorMatrix in="SourceAlpha" type="matrix" values="0 0 0 0 0 0 0 0 0 0 0 0 0 0 0 0 0 0 127 0" result="hardAlpha"/>
<feOffset/>
<feGaussianBlur stdDeviation="7.03547"/>
<feComposite in2="hardAlpha" operator="out"/>
<feColorMatrix type="matrix" values="0 0 0 0 1 0 0 0 0 1 0 0 0 0 1 0 0 0 0.5 0"/>
<feBlend mode="normal" in2="BackgroundImageFix" result="effect1_dropShadow_2_25"/>
<feBlend mode="normal" in="SourceGraphic" in2="effect1_dropShadow_2_25" result="shape"/>
</filter>
</defs>
</svg>
