<svg xmlns="http://www.w3.org/2000/svg" viewBox="-1.5 -1.5 32 32">
  <rect width="32" height="32" x="-1.5" y="-1.5" fill="#fff" rx="4" ry="4" />
  <rect width="6" height="6" x=".5" y=".5" fill="none" stroke="#000" rx="2.3" ry="2.3" />
  <rect width="6" height="6" x=".5" y="22.5" fill="none" stroke="#000" rx="2.3" ry="2.3" />
  <rect width="6" height="6" x="22.5" y=".5" fill="none" stroke="#000" rx="2.3" ry="2.3" />
  <rect width="3" height="3" x="2" y="2" rx=".8" ry=".8" />
  <rect width="3" height="3" x="2" y="24" rx=".8" ry=".8" />
  <rect width="3" height="3" x="24" y="2" rx=".8" ry=".8" />
  <rect width="4" height="4" x="20.5" y="20.5" fill="none" stroke="#000" rx="1.5" ry="1.5" />
  <rect width="1" height="1" x="22" y="22" rx=".4" ry=".4" />
  <rect width="1" height="1" x="8" rx=".4" ry=".4" />
  <rect width="1" height="1" x="9" rx=".4" ry=".4" />
  <rect width="1" height="1" x="10" rx=".4" ry=".4" />
  <rect width="1" height="1" x="14" rx=".4" ry=".4" />
  <rect width="1" height="1" x="15" rx=".4" ry=".4" />
  <rect width="1" height="1" x="16" rx=".4" ry=".4" />
  <rect width="1" height="1" x="17" rx=".4" ry=".4" />
  <rect width="1" height="1" x="18" rx=".4" ry=".4" />
  <rect width="1" height="1" x="19" rx=".4" ry=".4" />
  <rect width="1" height="1" x="11" y="1" rx=".4" ry=".4" />
  <rect width="1" height="1" x="12" y="1" rx=".4" ry=".4" />
  <rect width="1" height="1" x="13" y="1" rx=".4" ry=".4" />
  <rect width="1" height="1" x="14" y="1" rx=".4" ry=".4" />
  <rect width="1" height="1" x="8" y="2" rx=".4" ry=".4" />
  <rect width="1" height="1" x="9" y="2" rx=".4" ry=".4" />
  <rect width="1" height="1" x="10" y="2" rx=".4" ry=".4" />
  <rect width="1" height="1" x="14" y="2" rx=".4" ry=".4" />
  <rect width="1" height="1" x="15" y="2" rx=".4" ry=".4" />
  <rect width="1" height="1" x="16" y="2" rx=".4" ry=".4" />
  <rect width="1" height="1" x="20" y="2" rx=".4" ry=".4" />
  <rect width="1" height="1" x="10" y="3" rx=".4" ry=".4" />
  <rect width="1" height="1" x="11" y="3" rx=".4" ry=".4" />
  <rect width="1" height="1" x="14" y="3" rx=".4" ry=".4" />
  <rect width="1" height="1" x="15" y="3" rx=".4" ry=".4" />
  <rect width="1" height="1" x="16" y="3" rx=".4" ry=".4" />
  <rect width="1" height="1" x="17" y="3" rx=".4" ry=".4" />
  <rect width="1" height="1" x="20" y="3" rx=".4" ry=".4" />
  <rect width="1" height="1" x="9" y="4" rx=".4" ry=".4" />
  <rect width="1" height="1" x="13" y="4" rx=".4" ry=".4" />
  <rect width="1" height="1" x="14" y="4" rx=".4" ry=".4" />
  <rect width="1" height="1" x="15" y="4" rx=".4" ry=".4" />
  <rect width="1" height="1" x="17" y="4" rx=".4" ry=".4" />
  <rect width="1" height="1" x="18" y="4" rx=".4" ry=".4" />
  <rect width="1" height="1" x="19" y="4" rx=".4" ry=".4" />
  <rect width="1" height="1" x="8" y="5" rx=".4" ry=".4" />
  <rect width="1" height="1" x="10" y="5" rx=".4" ry=".4" />
  <rect width="1" height="1" x="15" y="5" rx=".4" ry=".4" />
  <rect width="1" height="1" x="16" y="5" rx=".4" ry=".4" />
  <rect width="1" height="1" x="19" y="5" rx=".4" ry=".4" />
  <rect width="1" height="1" x="20" y="5" rx=".4" ry=".4" />
  <rect width="1" height="1" x="8" y="6" rx=".4" ry=".4" />
  <rect width="1" height="1" x="10" y="6" rx=".4" ry=".4" />
  <rect width="1" height="1" x="12" y="6" rx=".4" ry=".4" />
  <rect width="1" height="1" x="14" y="6" rx=".4" ry=".4" />
  <rect width="1" height="1" x="16" y="6" rx=".4" ry=".4" />
  <rect width="1" height="1" x="18" y="6" rx=".4" ry=".4" />
  <rect width="1" height="1" x="20" y="6" rx=".4" ry=".4" />
  <rect width="1" height="1" x="10" y="7" rx=".4" ry=".4" />
  <rect width="1" height="1" x="11" y="7" rx=".4" ry=".4" />
  <rect width="1" height="1" x="12" y="7" rx=".4" ry=".4" />
  <rect width="1" height="1" x="14" y="7" rx=".4" ry=".4" />
  <rect width="1" height="1" x="17" y="7" rx=".4" ry=".4" />
  <rect width="1" height="1" x="18" y="7" rx=".4" ry=".4" />
  <rect width="1" height="1" y="8" rx=".4" ry=".4" />
  <rect width="1" height="1" x="2" y="8" rx=".4" ry=".4" />
  <rect width="1" height="1" x="6" y="8" rx=".4" ry=".4" />
  <rect width="1" height="1" x="7" y="8" rx=".4" ry=".4" />
  <rect width="1" height="1" x="9" y="8" rx=".4" ry=".4" />
  <rect width="1" height="1" x="10" y="8" rx=".4" ry=".4" />
  <rect width="1" height="1" x="13" y="8" rx=".4" ry=".4" />
  <rect width="1" height="1" x="14" y="8" rx=".4" ry=".4" />
  <rect width="1" height="1" x="18" y="8" rx=".4" ry=".4" />
  <rect width="1" height="1" x="19" y="8" rx=".4" ry=".4" />
  <rect width="1" height="1" x="20" y="8" rx=".4" ry=".4" />
  <rect width="1" height="1" x="23" y="8" rx=".4" ry=".4" />
  <rect width="1" height="1" x="26" y="8" rx=".4" ry=".4" />
  <rect width="1" height="1" x="28" y="8" rx=".4" ry=".4" />
  <rect width="1" height="1" x="1" y="9" rx=".4" ry=".4" />
  <rect width="1" height="1" x="3" y="9" rx=".4" ry=".4" />
  <rect width="1" height="1" x="5" y="9" rx=".4" ry=".4" />
  <rect width="1" height="1" x="7" y="9" rx=".4" ry=".4" />
  <rect width="1" height="1" x="9" y="9" rx=".4" ry=".4" />
  <rect width="1" height="1" x="10" y="9" rx=".4" ry=".4" />
  <rect width="1" height="1" x="11" y="9" rx=".4" ry=".4" />
  <rect width="1" height="1" x="13" y="9" rx=".4" ry=".4" />
  <rect width="1" height="1" x="14" y="9" rx=".4" ry=".4" />
  <rect width="1" height="1" x="16" y="9" rx=".4" ry=".4" />
  <rect width="1" height="1" x="18" y="9" rx=".4" ry=".4" />
  <rect width="1" height="1" x="21" y="9" rx=".4" ry=".4" />
  <rect width="1" height="1" x="22" y="9" rx=".4" ry=".4" />
  <rect width="1" height="1" x="24" y="9" rx=".4" ry=".4" />
  <rect width="1" height="1" x="25" y="9" rx=".4" ry=".4" />
  <rect width="1" height="1" x="27" y="9" rx=".4" ry=".4" />
  <rect width="1" height="1" x="28" y="9" rx=".4" ry=".4" />
  <rect width="1" height="1" x="2" y="10" rx=".4" ry=".4" />
  <rect width="1" height="1" x="4" y="10" rx=".4" ry=".4" />
  <rect width="1" height="1" x="6" y="10" rx=".4" ry=".4" />
  <rect width="1" height="1" x="7" y="10" rx=".4" ry=".4" />
  <rect width="1" height="1" x="9" y="10" rx=".4" ry=".4" />
  <rect width="1" height="1" x="10" y="10" rx=".4" ry=".4" />
  <rect width="1" height="1" x="11" y="10" rx=".4" ry=".4" />
  <rect width="1" height="1" x="12" y="10" rx=".4" ry=".4" />
  <rect width="1" height="1" x="18" y="10" rx=".4" ry=".4" />
  <rect width="1" height="1" x="20" y="10" rx=".4" ry=".4" />
  <rect width="1" height="1" x="21" y="10" rx=".4" ry=".4" />
  <rect width="1" height="1" x="23" y="10" rx=".4" ry=".4" />
  <rect width="1" height="1" x="24" y="10" rx=".4" ry=".4" />
  <rect width="1" height="1" x="25" y="10" rx=".4" ry=".4" />
  <rect width="1" height="1" x="1" y="11" rx=".4" ry=".4" />
  <rect width="1" height="1" x="2" y="11" rx=".4" ry=".4" />
  <rect width="1" height="1" x="5" y="11" rx=".4" ry=".4" />
  <rect width="1" height="1" x="8" y="11" rx=".4" ry=".4" />
  <rect width="1" height="1" x="9" y="11" rx=".4" ry=".4" />
  <rect width="1" height="1" x="11" y="11" rx=".4" ry=".4" />
  <rect width="1" height="1" x="12" y="11" rx=".4" ry=".4" />
  <rect width="1" height="1" x="13" y="11" rx=".4" ry=".4" />
  <rect width="1" height="1" x="19" y="11" rx=".4" ry=".4" />
  <rect width="1" height="1" x="21" y="11" rx=".4" ry=".4" />
  <rect width="1" height="1" x="27" y="11" rx=".4" ry=".4" />
  <rect width="1" height="1" x="28" y="11" rx=".4" ry=".4" />
  <rect width="1" height="1" y="12" rx=".4" ry=".4" />
  <rect width="1" height="1" x="2" y="12" rx=".4" ry=".4" />
  <rect width="1" height="1" x="6" y="12" rx=".4" ry=".4" />
  <rect width="1" height="1" x="7" y="12" rx=".4" ry=".4" />
  <rect width="1" height="1" x="8" y="12" rx=".4" ry=".4" />
  <rect width="1" height="1" x="11" y="12" rx=".4" ry=".4" />
  <rect width="1" height="1" x="13" y="12" rx=".4" ry=".4" />
  <rect width="1" height="1" x="15" y="12" rx=".4" ry=".4" />
  <rect width="1" height="1" x="16" y="12" rx=".4" ry=".4" />
  <rect width="1" height="1" x="23" y="12" rx=".4" ry=".4" />
  <rect width="1" height="1" x="27" y="12" rx=".4" ry=".4" />
  <rect width="1" height="1" y="13" rx=".4" ry=".4" />
  <rect width="1" height="1" x="1" y="13" rx=".4" ry=".4" />
  <rect width="1" height="1" x="2" y="13" rx=".4" ry=".4" />
  <rect width="1" height="1" x="4" y="13" rx=".4" ry=".4" />
  <rect width="1" height="1" x="5" y="13" rx=".4" ry=".4" />
  <rect width="1" height="1" x="7" y="13" rx=".4" ry=".4" />
  <rect width="1" height="1" x="12" y="13" rx=".4" ry=".4" />
  <rect width="1" height="1" x="15" y="13" rx=".4" ry=".4" />
  <rect width="1" height="1" x="17" y="13" rx=".4" ry=".4" />
  <rect width="1" height="1" x="20" y="13" rx=".4" ry=".4" />
  <rect width="1" height="1" x="21" y="13" rx=".4" ry=".4" />
  <rect width="1" height="1" x="24" y="13" rx=".4" ry=".4" />
  <rect width="1" height="1" x="25" y="13" rx=".4" ry=".4" />
  <rect width="1" height="1" x="26" y="13" rx=".4" ry=".4" />
  <rect width="1" height="1" x="28" y="13" rx=".4" ry=".4" />
  <rect width="1" height="1" x="3" y="14" rx=".4" ry=".4" />
  <rect width="1" height="1" x="4" y="14" rx=".4" ry=".4" />
  <rect width="1" height="1" x="6" y="14" rx=".4" ry=".4" />
  <rect width="1" height="1" x="9" y="14" rx=".4" ry=".4" />
  <rect width="1" height="1" x="10" y="14" rx=".4" ry=".4" />
  <rect width="1" height="1" x="11" y="14" rx=".4" ry=".4" />
  <rect width="1" height="1" x="12" y="14" rx=".4" ry=".4" />
  <rect width="1" height="1" x="13" y="14" rx=".4" ry=".4" />
  <rect width="1" height="1" x="14" y="14" rx=".4" ry=".4" />
  <rect width="1" height="1" x="18" y="14" rx=".4" ry=".4" />
  <rect width="1" height="1" x="21" y="14" rx=".4" ry=".4" />
  <rect width="1" height="1" x="23" y="14" rx=".4" ry=".4" />
  <rect width="1" height="1" x="24" y="14" rx=".4" ry=".4" />
  <rect width="1" height="1" x="25" y="14" rx=".4" ry=".4" />
  <rect width="1" height="1" x="28" y="14" rx=".4" ry=".4" />
  <rect width="1" height="1" x="1" y="15" rx=".4" ry=".4" />
  <rect width="1" height="1" x="2" y="15" rx=".4" ry=".4" />
  <rect width="1" height="1" x="3" y="15" rx=".4" ry=".4" />
  <rect width="1" height="1" x="5" y="15" rx=".4" ry=".4" />
  <rect width="1" height="1" x="10" y="15" rx=".4" ry=".4" />
  <rect width="1" height="1" x="14" y="15" rx=".4" ry=".4" />
  <rect width="1" height="1" x="18" y="15" rx=".4" ry=".4" />
  <rect width="1" height="1" x="22" y="15" rx=".4" ry=".4" />
  <rect width="1" height="1" x="25" y="15" rx=".4" ry=".4" />
  <rect width="1" height="1" x="26" y="15" rx=".4" ry=".4" />
  <rect width="1" height="1" x="27" y="15" rx=".4" ry=".4" />
  <rect width="1" height="1" x="3" y="16" rx=".4" ry=".4" />
  <rect width="1" height="1" x="4" y="16" rx=".4" ry=".4" />
  <rect width="1" height="1" x="6" y="16" rx=".4" ry=".4" />
  <rect width="1" height="1" x="9" y="16" rx=".4" ry=".4" />
  <rect width="1" height="1" x="12" y="16" rx=".4" ry=".4" />
  <rect width="1" height="1" x="13" y="16" rx=".4" ry=".4" />
  <rect width="1" height="1" x="14" y="16" rx=".4" ry=".4" />
  <rect width="1" height="1" x="18" y="16" rx=".4" ry=".4" />
  <rect width="1" height="1" x="20" y="16" rx=".4" ry=".4" />
  <rect width="1" height="1" x="21" y="16" rx=".4" ry=".4" />
  <rect width="1" height="1" x="23" y="16" rx=".4" ry=".4" />
  <rect width="1" height="1" x="25" y="16" rx=".4" ry=".4" />
  <rect width="1" height="1" x="26" y="16" rx=".4" ry=".4" />
  <rect width="1" height="1" x="28" y="16" rx=".4" ry=".4" />
  <rect width="1" height="1" x="2" y="17" rx=".4" ry=".4" />
  <rect width="1" height="1" x="8" y="17" rx=".4" ry=".4" />
  <rect width="1" height="1" x="9" y="17" rx=".4" ry=".4" />
  <rect width="1" height="1" x="13" y="17" rx=".4" ry=".4" />
  <rect width="1" height="1" x="14" y="17" rx=".4" ry=".4" />
  <rect width="1" height="1" x="16" y="17" rx=".4" ry=".4" />
  <rect width="1" height="1" x="22" y="17" rx=".4" ry=".4" />
  <rect width="1" height="1" x="24" y="17" rx=".4" ry=".4" />
  <rect width="1" height="1" x="26" y="17" rx=".4" ry=".4" />
  <rect width="1" height="1" x="28" y="17" rx=".4" ry=".4" />
  <rect width="1" height="1" y="18" rx=".4" ry=".4" />
  <rect width="1" height="1" x="1" y="18" rx=".4" ry=".4" />
  <rect width="1" height="1" x="4" y="18" rx=".4" ry=".4" />
  <rect width="1" height="1" x="6" y="18" rx=".4" ry=".4" />
  <rect width="1" height="1" x="8" y="18" rx=".4" ry=".4" />
  <rect width="1" height="1" x="9" y="18" rx=".4" ry=".4" />
  <rect width="1" height="1" x="11" y="18" rx=".4" ry=".4" />
  <rect width="1" height="1" x="12" y="18" rx=".4" ry=".4" />
  <rect width="1" height="1" x="15" y="18" rx=".4" ry=".4" />
  <rect width="1" height="1" x="16" y="18" rx=".4" ry=".4" />
  <rect width="1" height="1" x="18" y="18" rx=".4" ry=".4" />
  <rect width="1" height="1" x="19" y="18" rx=".4" ry=".4" />
  <rect width="1" height="1" x="20" y="18" rx=".4" ry=".4" />
  <rect width="1" height="1" x="21" y="18" rx=".4" ry=".4" />
  <rect width="1" height="1" x="22" y="18" rx=".4" ry=".4" />
  <rect width="1" height="1" x="23" y="18" rx=".4" ry=".4" />
  <rect width="1" height="1" x="24" y="18" rx=".4" ry=".4" />
  <rect width="1" height="1" x="25" y="18" rx=".4" ry=".4" />
  <rect width="1" height="1" x="27" y="18" rx=".4" ry=".4" />
  <rect width="1" height="1" x="28" y="18" rx=".4" ry=".4" />
  <rect width="1" height="1" x="3" y="19" rx=".4" ry=".4" />
  <rect width="1" height="1" x="4" y="19" rx=".4" ry=".4" />
  <rect width="1" height="1" x="5" y="19" rx=".4" ry=".4" />
  <rect width="1" height="1" x="7" y="19" rx=".4" ry=".4" />
  <rect width="1" height="1" x="8" y="19" rx=".4" ry=".4" />
  <rect width="1" height="1" x="11" y="19" rx=".4" ry=".4" />
  <rect width="1" height="1" x="13" y="19" rx=".4" ry=".4" />
  <rect width="1" height="1" x="15" y="19" rx=".4" ry=".4" />
  <rect width="1" height="1" x="18" y="19" rx=".4" ry=".4" />
  <rect width="1" height="1" x="19" y="19" rx=".4" ry=".4" />
  <rect width="1" height="1" x="21" y="19" rx=".4" ry=".4" />
  <rect width="1" height="1" x="26" y="19" rx=".4" ry=".4" />
  <rect width="1" height="1" x="27" y="19" rx=".4" ry=".4" />
  <rect width="1" height="1" x="28" y="19" rx=".4" ry=".4" />
  <rect width="1" height="1" y="20" rx=".4" ry=".4" />
  <rect width="1" height="1" x="1" y="20" rx=".4" ry=".4" />
  <rect width="1" height="1" x="2" y="20" rx=".4" ry=".4" />
  <rect width="1" height="1" x="3" y="20" rx=".4" ry=".4" />
  <rect width="1" height="1" x="4" y="20" rx=".4" ry=".4" />
  <rect width="1" height="1" x="6" y="20" rx=".4" ry=".4" />
  <rect width="1" height="1" x="9" y="20" rx=".4" ry=".4" />
  <rect width="1" height="1" x="10" y="20" rx=".4" ry=".4" />
  <rect width="1" height="1" x="12" y="20" rx=".4" ry=".4" />
  <rect width="1" height="1" x="13" y="20" rx=".4" ry=".4" />
  <rect width="1" height="1" x="15" y="20" rx=".4" ry=".4" />
  <rect width="1" height="1" x="18" y="20" rx=".4" ry=".4" />
  <rect width="1" height="1" x="19" y="20" rx=".4" ry=".4" />
  <rect width="1" height="1" x="25" y="20" rx=".4" ry=".4" />
  <rect width="1" height="1" x="26" y="20" rx=".4" ry=".4" />
  <rect width="1" height="1" x="27" y="20" rx=".4" ry=".4" />
  <rect width="1" height="1" x="8" y="21" rx=".4" ry=".4" />
  <rect width="1" height="1" x="9" y="21" rx=".4" ry=".4" />
  <rect width="1" height="1" x="11" y="21" rx=".4" ry=".4" />
  <rect width="1" height="1" x="16" y="21" rx=".4" ry=".4" />
  <rect width="1" height="1" x="18" y="21" rx=".4" ry=".4" />
  <rect width="1" height="1" x="26" y="21" rx=".4" ry=".4" />
  <rect width="1" height="1" x="27" y="21" rx=".4" ry=".4" />
  <rect width="1" height="1" x="8" y="22" rx=".4" ry=".4" />
  <rect width="1" height="1" x="11" y="22" rx=".4" ry=".4" />
  <rect width="1" height="1" x="13" y="22" rx=".4" ry=".4" />
  <rect width="1" height="1" x="14" y="22" rx=".4" ry=".4" />
  <rect width="1" height="1" x="15" y="22" rx=".4" ry=".4" />
  <rect width="1" height="1" x="16" y="22" rx=".4" ry=".4" />
  <rect width="1" height="1" x="18" y="22" rx=".4" ry=".4" />
  <rect width="1" height="1" x="19" y="22" rx=".4" ry=".4" />
  <rect width="1" height="1" x="28" y="22" rx=".4" ry=".4" />
  <rect width="1" height="1" x="9" y="23" rx=".4" ry=".4" />
  <rect width="1" height="1" x="10" y="23" rx=".4" ry=".4" />
  <rect width="1" height="1" x="11" y="23" rx=".4" ry=".4" />
  <rect width="1" height="1" x="12" y="23" rx=".4" ry=".4" />
  <rect width="1" height="1" x="14" y="23" rx=".4" ry=".4" />
  <rect width="1" height="1" x="15" y="23" rx=".4" ry=".4" />
  <rect width="1" height="1" x="17" y="23" rx=".4" ry=".4" />
  <rect width="1" height="1" x="18" y="23" rx=".4" ry=".4" />
  <rect width="1" height="1" x="26" y="23" rx=".4" ry=".4" />
  <rect width="1" height="1" x="10" y="24" rx=".4" ry=".4" />
  <rect width="1" height="1" x="13" y="24" rx=".4" ry=".4" />
  <rect width="1" height="1" x="14" y="24" rx=".4" ry=".4" />
  <rect width="1" height="1" x="15" y="24" rx=".4" ry=".4" />
  <rect width="1" height="1" x="18" y="24" rx=".4" ry=".4" />
  <rect width="1" height="1" x="25" y="24" rx=".4" ry=".4" />
  <rect width="1" height="1" x="27" y="24" rx=".4" ry=".4" />
  <rect width="1" height="1" x="9" y="25" rx=".4" ry=".4" />
  <rect width="1" height="1" x="10" y="25" rx=".4" ry=".4" />
  <rect width="1" height="1" x="11" y="25" rx=".4" ry=".4" />
  <rect width="1" height="1" x="13" y="25" rx=".4" ry=".4" />
  <rect width="1" height="1" x="14" y="25" rx=".4" ry=".4" />
  <rect width="1" height="1" x="15" y="25" rx=".4" ry=".4" />
  <rect width="1" height="1" x="18" y="25" rx=".4" ry=".4" />
  <rect width="1" height="1" x="20" y="25" rx=".4" ry=".4" />
  <rect width="1" height="1" x="21" y="25" rx=".4" ry=".4" />
  <rect width="1" height="1" x="22" y="25" rx=".4" ry=".4" />
  <rect width="1" height="1" x="24" y="25" rx=".4" ry=".4" />
  <rect width="1" height="1" x="25" y="25" rx=".4" ry=".4" />
  <rect width="1" height="1" x="26" y="25" rx=".4" ry=".4" />
  <rect width="1" height="1" x="8" y="26" rx=".4" ry=".4" />
  <rect width="1" height="1" x="10" y="26" rx=".4" ry=".4" />
  <rect width="1" height="1" x="12" y="26" rx=".4" ry=".4" />
  <rect width="1" height="1" x="14" y="26" rx=".4" ry=".4" />
  <rect width="1" height="1" x="18" y="26" rx=".4" ry=".4" />
  <rect width="1" height="1" x="19" y="26" rx=".4" ry=".4" />
  <rect width="1" height="1" x="22" y="26" rx=".4" ry=".4" />
  <rect width="1" height="1" x="23" y="26" rx=".4" ry=".4" />
  <rect width="1" height="1" x="24" y="26" rx=".4" ry=".4" />
  <rect width="1" height="1" x="25" y="26" rx=".4" ry=".4" />
  <rect width="1" height="1" x="26" y="26" rx=".4" ry=".4" />
  <rect width="1" height="1" x="27" y="26" rx=".4" ry=".4" />
  <rect width="1" height="1" x="28" y="26" rx=".4" ry=".4" />
  <rect width="1" height="1" x="12" y="27" rx=".4" ry=".4" />
  <rect width="1" height="1" x="13" y="27" rx=".4" ry=".4" />
  <rect width="1" height="1" x="14" y="27" rx=".4" ry=".4" />
  <rect width="1" height="1" x="15" y="27" rx=".4" ry=".4" />
  <rect width="1" height="1" x="17" y="27" rx=".4" ry=".4" />
  <rect width="1" height="1" x="18" y="27" rx=".4" ry=".4" />
  <rect width="1" height="1" x="19" y="27" rx=".4" ry=".4" />
  <rect width="1" height="1" x="20" y="27" rx=".4" ry=".4" />
  <rect width="1" height="1" x="24" y="27" rx=".4" ry=".4" />
  <rect width="1" height="1" x="25" y="27" rx=".4" ry=".4" />
  <rect width="1" height="1" x="28" y="27" rx=".4" ry=".4" />
  <rect width="1" height="1" x="8" y="28" rx=".4" ry=".4" />
  <rect width="1" height="1" x="9" y="28" rx=".4" ry=".4" />
  <rect width="1" height="1" x="11" y="28" rx=".4" ry=".4" />
  <rect width="1" height="1" x="14" y="28" rx=".4" ry=".4" />
  <rect width="1" height="1" x="15" y="28" rx=".4" ry=".4" />
  <rect width="1" height="1" x="16" y="28" rx=".4" ry=".4" />
  <rect width="1" height="1" x="18" y="28" rx=".4" ry=".4" />
  <rect width="1" height="1" x="19" y="28" rx=".4" ry=".4" />
  <rect width="1" height="1" x="21" y="28" rx=".4" ry=".4" />
  <rect width="1" height="1" x="23" y="28" rx=".4" ry=".4" />
  <rect width="1" height="1" x="24" y="28" rx=".4" ry=".4" />
  <rect width="1" height="1" x="25" y="28" rx=".4" ry=".4" />
  <rect width="1" height="1" x="26" y="28" rx=".4" ry=".4" />
  <rect width="1" height="1" x="27" y="28" rx=".4" ry=".4" />
  <rect width="1" height="1" x="28" y="28" rx=".4" ry=".4" />
</svg>