<svg xmlns="http://www.w3.org/2000/svg" viewBox="-1.5 -1.5 36 36">
  <rect width="36" height="36" x="-1.5" y="-1.5" fill="#fff" rx="4" ry="4" />
  <svg xmlns="http://www.w3.org/2000/svg" width="14.124" height="10.977" x="9.438" y="11.011"
    fill="none" viewBox="0 0 446 347">
    <path stroke="#000" stroke-linecap="round" stroke-width="80"
      d="M133.297 206.249c63.16-41.611 115.947-41.611 179.107 0m-271.977-92.87c111.831-96.698 253.123-96.606 364.847 0" />
    <path fill="#000"
      d="M222.85 346.278c22.091 0 40-17.908 40-40s-17.909-40-40-40-40 17.909-40 40 17.909 40 40 40" />
  </svg>
  <rect width="6" height="6" x=".5" y=".5" fill="none" stroke="#000" rx="2.3" ry="2.3" />
  <rect width="6" height="6" x=".5" y="26.5" fill="none" stroke="#000" rx="2.3" ry="2.3" />
  <rect width="6" height="6" x="26.5" y=".5" fill="none" stroke="#000" rx="2.3" ry="2.3" />
  <rect width="3" height="3" x="2" y="2" rx=".8" ry=".8" />
  <rect width="3" height="3" x="2" y="28" rx=".8" ry=".8" />
  <rect width="3" height="3" x="28" y="2" rx=".8" ry=".8" />
  <rect width="4" height="4" x="24.5" y="24.5" fill="none" stroke="#000" rx="1.5" ry="1.5" />
  <rect width="1" height="1" x="26" y="26" rx=".4" ry=".4" />
  <rect width="1" height="1" x="8" rx=".4" ry=".4" />
  <rect width="1" height="1" x="12" rx=".4" ry=".4" />
  <rect width="1" height="1" x="13" rx=".4" ry=".4" />
  <rect width="1" height="1" x="17" rx=".4" ry=".4" />
  <rect width="1" height="1" x="21" rx=".4" ry=".4" />
  <rect width="1" height="1" x="22" rx=".4" ry=".4" />
  <rect width="1" height="1" x="8" y="1" rx=".4" ry=".4" />
  <rect width="1" height="1" x="10" y="1" rx=".4" ry=".4" />
  <rect width="1" height="1" x="13" y="1" rx=".4" ry=".4" />
  <rect width="1" height="1" x="18" y="1" rx=".4" ry=".4" />
  <rect width="1" height="1" x="22" y="1" rx=".4" ry=".4" />
  <rect width="1" height="1" x="23" y="1" rx=".4" ry=".4" />
  <rect width="1" height="1" x="8" y="2" rx=".4" ry=".4" />
  <rect width="1" height="1" x="10" y="2" rx=".4" ry=".4" />
  <rect width="1" height="1" x="12" y="2" rx=".4" ry=".4" />
  <rect width="1" height="1" x="13" y="2" rx=".4" ry=".4" />
  <rect width="1" height="1" x="15" y="2" rx=".4" ry=".4" />
  <rect width="1" height="1" x="17" y="2" rx=".4" ry=".4" />
  <rect width="1" height="1" x="18" y="2" rx=".4" ry=".4" />
  <rect width="1" height="1" x="19" y="2" rx=".4" ry=".4" />
  <rect width="1" height="1" x="21" y="2" rx=".4" ry=".4" />
  <rect width="1" height="1" x="22" y="2" rx=".4" ry=".4" />
  <rect width="1" height="1" x="23" y="2" rx=".4" ry=".4" />
  <rect width="1" height="1" x="24" y="2" rx=".4" ry=".4" />
  <rect width="1" height="1" x="8" y="3" rx=".4" ry=".4" />
  <rect width="1" height="1" x="9" y="3" rx=".4" ry=".4" />
  <rect width="1" height="1" x="12" y="3" rx=".4" ry=".4" />
  <rect width="1" height="1" x="17" y="3" rx=".4" ry=".4" />
  <rect width="1" height="1" x="18" y="3" rx=".4" ry=".4" />
  <rect width="1" height="1" x="20" y="3" rx=".4" ry=".4" />
  <rect width="1" height="1" x="21" y="3" rx=".4" ry=".4" />
  <rect width="1" height="1" x="22" y="3" rx=".4" ry=".4" />
  <rect width="1" height="1" x="8" y="4" rx=".4" ry=".4" />
  <rect width="1" height="1" x="10" y="4" rx=".4" ry=".4" />
  <rect width="1" height="1" x="13" y="4" rx=".4" ry=".4" />
  <rect width="1" height="1" x="15" y="4" rx=".4" ry=".4" />
  <rect width="1" height="1" x="18" y="4" rx=".4" ry=".4" />
  <rect width="1" height="1" x="20" y="4" rx=".4" ry=".4" />
  <rect width="1" height="1" x="21" y="4" rx=".4" ry=".4" />
  <rect width="1" height="1" x="22" y="4" rx=".4" ry=".4" />
  <rect width="1" height="1" x="9" y="5" rx=".4" ry=".4" />
  <rect width="1" height="1" x="11" y="5" rx=".4" ry=".4" />
  <rect width="1" height="1" x="12" y="5" rx=".4" ry=".4" />
  <rect width="1" height="1" x="13" y="5" rx=".4" ry=".4" />
  <rect width="1" height="1" x="14" y="5" rx=".4" ry=".4" />
  <rect width="1" height="1" x="16" y="5" rx=".4" ry=".4" />
  <rect width="1" height="1" x="17" y="5" rx=".4" ry=".4" />
  <rect width="1" height="1" x="18" y="5" rx=".4" ry=".4" />
  <rect width="1" height="1" x="19" y="5" rx=".4" ry=".4" />
  <rect width="1" height="1" x="20" y="5" rx=".4" ry=".4" />
  <rect width="1" height="1" x="22" y="5" rx=".4" ry=".4" />
  <rect width="1" height="1" x="8" y="6" rx=".4" ry=".4" />
  <rect width="1" height="1" x="10" y="6" rx=".4" ry=".4" />
  <rect width="1" height="1" x="12" y="6" rx=".4" ry=".4" />
  <rect width="1" height="1" x="14" y="6" rx=".4" ry=".4" />
  <rect width="1" height="1" x="16" y="6" rx=".4" ry=".4" />
  <rect width="1" height="1" x="18" y="6" rx=".4" ry=".4" />
  <rect width="1" height="1" x="20" y="6" rx=".4" ry=".4" />
  <rect width="1" height="1" x="22" y="6" rx=".4" ry=".4" />
  <rect width="1" height="1" x="24" y="6" rx=".4" ry=".4" />
  <rect width="1" height="1" x="8" y="7" rx=".4" ry=".4" />
  <rect width="1" height="1" x="10" y="7" rx=".4" ry=".4" />
  <rect width="1" height="1" x="12" y="7" rx=".4" ry=".4" />
  <rect width="1" height="1" x="13" y="7" rx=".4" ry=".4" />
  <rect width="1" height="1" x="16" y="7" rx=".4" ry=".4" />
  <rect width="1" height="1" x="17" y="7" rx=".4" ry=".4" />
  <rect width="1" height="1" x="19" y="7" rx=".4" ry=".4" />
  <rect width="1" height="1" x="24" y="7" rx=".4" ry=".4" />
  <rect width="1" height="1" x="1" y="8" rx=".4" ry=".4" />
  <rect width="1" height="1" x="2" y="8" rx=".4" ry=".4" />
  <rect width="1" height="1" x="4" y="8" rx=".4" ry=".4" />
  <rect width="1" height="1" x="6" y="8" rx=".4" ry=".4" />
  <rect width="1" height="1" x="7" y="8" rx=".4" ry=".4" />
  <rect width="1" height="1" x="11" y="8" rx=".4" ry=".4" />
  <rect width="1" height="1" x="13" y="8" rx=".4" ry=".4" />
  <rect width="1" height="1" x="14" y="8" rx=".4" ry=".4" />
  <rect width="1" height="1" x="18" y="8" rx=".4" ry=".4" />
  <rect width="1" height="1" x="20" y="8" rx=".4" ry=".4" />
  <rect width="1" height="1" x="21" y="8" rx=".4" ry=".4" />
  <rect width="1" height="1" x="23" y="8" rx=".4" ry=".4" />
  <rect width="1" height="1" x="24" y="8" rx=".4" ry=".4" />
  <rect width="1" height="1" x="26" y="8" rx=".4" ry=".4" />
  <rect width="1" height="1" x="28" y="8" rx=".4" ry=".4" />
  <rect width="1" height="1" x="29" y="8" rx=".4" ry=".4" />
  <rect width="1" height="1" x="30" y="8" rx=".4" ry=".4" />
  <rect width="1" height="1" x="31" y="8" rx=".4" ry=".4" />
  <rect width="1" height="1" x="32" y="8" rx=".4" ry=".4" />
  <rect width="1" height="1" x="2" y="9" rx=".4" ry=".4" />
  <rect width="1" height="1" x="4" y="9" rx=".4" ry=".4" />
  <rect width="1" height="1" x="8" y="9" rx=".4" ry=".4" />
  <rect width="1" height="1" x="9" y="9" rx=".4" ry=".4" />
  <rect width="1" height="1" x="12" y="9" rx=".4" ry=".4" />
  <rect width="1" height="1" x="19" y="9" rx=".4" ry=".4" />
  <rect width="1" height="1" x="20" y="9" rx=".4" ry=".4" />
  <rect width="1" height="1" x="21" y="9" rx=".4" ry=".4" />
  <rect width="1" height="1" x="22" y="9" rx=".4" ry=".4" />
  <rect width="1" height="1" x="23" y="9" rx=".4" ry=".4" />
  <rect width="1" height="1" x="25" y="9" rx=".4" ry=".4" />
  <rect width="1" height="1" x="31" y="9" rx=".4" ry=".4" />
  <rect width="1" height="1" x="1" y="10" rx=".4" ry=".4" />
  <rect width="1" height="1" x="2" y="10" rx=".4" ry=".4" />
  <rect width="1" height="1" x="3" y="10" rx=".4" ry=".4" />
  <rect width="1" height="1" x="4" y="10" rx=".4" ry=".4" />
  <rect width="1" height="1" x="5" y="10" rx=".4" ry=".4" />
  <rect width="1" height="1" x="6" y="10" rx=".4" ry=".4" />
  <rect width="1" height="1" x="7" y="10" rx=".4" ry=".4" />
  <rect width="1" height="1" x="10" y="10" rx=".4" ry=".4" />
  <rect width="1" height="1" x="22" y="10" rx=".4" ry=".4" />
  <rect width="1" height="1" x="23" y="10" rx=".4" ry=".4" />
  <rect width="1" height="1" x="25" y="10" rx=".4" ry=".4" />
  <rect width="1" height="1" x="27" y="10" rx=".4" ry=".4" />
  <rect width="1" height="1" x="29" y="10" rx=".4" ry=".4" />
  <rect width="1" height="1" x="30" y="10" rx=".4" ry=".4" />
  <rect width="1" height="1" x="32" y="10" rx=".4" ry=".4" />
  <rect width="1" height="1" y="11" rx=".4" ry=".4" />
  <rect width="1" height="1" x="1" y="11" rx=".4" ry=".4" />
  <rect width="1" height="1" x="2" y="11" rx=".4" ry=".4" />
  <rect width="1" height="1" x="3" y="11" rx=".4" ry=".4" />
  <rect width="1" height="1" x="5" y="11" rx=".4" ry=".4" />
  <rect width="1" height="1" x="8" y="11" rx=".4" ry=".4" />
  <rect width="1" height="1" x="9" y="11" rx=".4" ry=".4" />
  <rect width="1" height="1" x="23" y="11" rx=".4" ry=".4" />
  <rect width="1" height="1" x="28" y="11" rx=".4" ry=".4" />
  <rect width="1" height="1" y="12" rx=".4" ry=".4" />
  <rect width="1" height="1" x="1" y="12" rx=".4" ry=".4" />
  <rect width="1" height="1" x="3" y="12" rx=".4" ry=".4" />
  <rect width="1" height="1" x="6" y="12" rx=".4" ry=".4" />
  <rect width="1" height="1" x="7" y="12" rx=".4" ry=".4" />
  <rect width="1" height="1" x="8" y="12" rx=".4" ry=".4" />
  <rect width="1" height="1" x="24" y="12" rx=".4" ry=".4" />
  <rect width="1" height="1" x="26" y="12" rx=".4" ry=".4" />
  <rect width="1" height="1" x="27" y="12" rx=".4" ry=".4" />
  <rect width="1" height="1" x="28" y="12" rx=".4" ry=".4" />
  <rect width="1" height="1" x="31" y="12" rx=".4" ry=".4" />
  <rect width="1" height="1" x="1" y="13" rx=".4" ry=".4" />
  <rect width="1" height="1" x="2" y="13" rx=".4" ry=".4" />
  <rect width="1" height="1" x="4" y="13" rx=".4" ry=".4" />
  <rect width="1" height="1" x="5" y="13" rx=".4" ry=".4" />
  <rect width="1" height="1" x="7" y="13" rx=".4" ry=".4" />
  <rect width="1" height="1" x="27" y="13" rx=".4" ry=".4" />
  <rect width="1" height="1" x="28" y="13" rx=".4" ry=".4" />
  <rect width="1" height="1" x="30" y="13" rx=".4" ry=".4" />
  <rect width="1" height="1" x="31" y="13" rx=".4" ry=".4" />
  <rect width="1" height="1" x="32" y="13" rx=".4" ry=".4" />
  <rect width="1" height="1" y="14" rx=".4" ry=".4" />
  <rect width="1" height="1" x="2" y="14" rx=".4" ry=".4" />
  <rect width="1" height="1" x="6" y="14" rx=".4" ry=".4" />
  <rect width="1" height="1" x="26" y="14" rx=".4" ry=".4" />
  <rect width="1" height="1" x="27" y="14" rx=".4" ry=".4" />
  <rect width="1" height="1" x="28" y="14" rx=".4" ry=".4" />
  <rect width="1" height="1" x="29" y="14" rx=".4" ry=".4" />
  <rect width="1" height="1" x="30" y="14" rx=".4" ry=".4" />
  <rect width="1" height="1" x="32" y="14" rx=".4" ry=".4" />
  <rect width="1" height="1" y="15" rx=".4" ry=".4" />
  <rect width="1" height="1" x="1" y="15" rx=".4" ry=".4" />
  <rect width="1" height="1" x="2" y="15" rx=".4" ry=".4" />
  <rect width="1" height="1" x="3" y="15" rx=".4" ry=".4" />
  <rect width="1" height="1" x="5" y="15" rx=".4" ry=".4" />
  <rect width="1" height="1" x="25" y="15" rx=".4" ry=".4" />
  <rect width="1" height="1" x="28" y="15" rx=".4" ry=".4" />
  <rect width="1" height="1" x="29" y="15" rx=".4" ry=".4" />
  <rect width="1" height="1" x="30" y="15" rx=".4" ry=".4" />
  <rect width="1" height="1" x="32" y="15" rx=".4" ry=".4" />
  <rect width="1" height="1" y="16" rx=".4" ry=".4" />
  <rect width="1" height="1" x="1" y="16" rx=".4" ry=".4" />
  <rect width="1" height="1" x="2" y="16" rx=".4" ry=".4" />
  <rect width="1" height="1" x="4" y="16" rx=".4" ry=".4" />
  <rect width="1" height="1" x="6" y="16" rx=".4" ry=".4" />
  <rect width="1" height="1" x="8" y="16" rx=".4" ry=".4" />
  <rect width="1" height="1" x="26" y="16" rx=".4" ry=".4" />
  <rect width="1" height="1" x="29" y="16" rx=".4" ry=".4" />
  <rect width="1" height="1" x="30" y="16" rx=".4" ry=".4" />
  <rect width="1" height="1" x="2" y="17" rx=".4" ry=".4" />
  <rect width="1" height="1" x="4" y="17" rx=".4" ry=".4" />
  <rect width="1" height="1" x="5" y="17" rx=".4" ry=".4" />
  <rect width="1" height="1" x="8" y="17" rx=".4" ry=".4" />
  <rect width="1" height="1" x="9" y="17" rx=".4" ry=".4" />
  <rect width="1" height="1" x="23" y="17" rx=".4" ry=".4" />
  <rect width="1" height="1" x="24" y="17" rx=".4" ry=".4" />
  <rect width="1" height="1" x="29" y="17" rx=".4" ry=".4" />
  <rect width="1" height="1" x="30" y="17" rx=".4" ry=".4" />
  <rect width="1" height="1" x="31" y="17" rx=".4" ry=".4" />
  <rect width="1" height="1" y="18" rx=".4" ry=".4" />
  <rect width="1" height="1" x="4" y="18" rx=".4" ry=".4" />
  <rect width="1" height="1" x="5" y="18" rx=".4" ry=".4" />
  <rect width="1" height="1" x="6" y="18" rx=".4" ry=".4" />
  <rect width="1" height="1" x="7" y="18" rx=".4" ry=".4" />
  <rect width="1" height="1" x="10" y="18" rx=".4" ry=".4" />
  <rect width="1" height="1" x="23" y="18" rx=".4" ry=".4" />
  <rect width="1" height="1" x="25" y="18" rx=".4" ry=".4" />
  <rect width="1" height="1" x="28" y="18" rx=".4" ry=".4" />
  <rect width="1" height="1" x="29" y="18" rx=".4" ry=".4" />
  <rect width="1" height="1" x="32" y="18" rx=".4" ry=".4" />
  <rect width="1" height="1" x="1" y="19" rx=".4" ry=".4" />
  <rect width="1" height="1" x="8" y="19" rx=".4" ry=".4" />
  <rect width="1" height="1" x="11" y="19" rx=".4" ry=".4" />
  <rect width="1" height="1" x="23" y="19" rx=".4" ry=".4" />
  <rect width="1" height="1" x="24" y="19" rx=".4" ry=".4" />
  <rect width="1" height="1" x="30" y="19" rx=".4" ry=".4" />
  <rect width="1" height="1" x="31" y="19" rx=".4" ry=".4" />
  <rect width="1" height="1" x="32" y="19" rx=".4" ry=".4" />
  <rect width="1" height="1" x="3" y="20" rx=".4" ry=".4" />
  <rect width="1" height="1" x="4" y="20" rx=".4" ry=".4" />
  <rect width="1" height="1" x="6" y="20" rx=".4" ry=".4" />
  <rect width="1" height="1" x="7" y="20" rx=".4" ry=".4" />
  <rect width="1" height="1" x="8" y="20" rx=".4" ry=".4" />
  <rect width="1" height="1" x="12" y="20" rx=".4" ry=".4" />
  <rect width="1" height="1" x="24" y="20" rx=".4" ry=".4" />
  <rect width="1" height="1" x="27" y="20" rx=".4" ry=".4" />
  <rect width="1" height="1" x="28" y="20" rx=".4" ry=".4" />
  <rect width="1" height="1" x="29" y="20" rx=".4" ry=".4" />
  <rect width="1" height="1" x="32" y="20" rx=".4" ry=".4" />
  <rect width="1" height="1" x="4" y="21" rx=".4" ry=".4" />
  <rect width="1" height="1" x="5" y="21" rx=".4" ry=".4" />
  <rect width="1" height="1" x="8" y="21" rx=".4" ry=".4" />
  <rect width="1" height="1" x="9" y="21" rx=".4" ry=".4" />
  <rect width="1" height="1" x="10" y="21" rx=".4" ry=".4" />
  <rect width="1" height="1" x="12" y="21" rx=".4" ry=".4" />
  <rect width="1" height="1" x="19" y="21" rx=".4" ry=".4" />
  <rect width="1" height="1" x="21" y="21" rx=".4" ry=".4" />
  <rect width="1" height="1" x="23" y="21" rx=".4" ry=".4" />
  <rect width="1" height="1" x="24" y="21" rx=".4" ry=".4" />
  <rect width="1" height="1" x="27" y="21" rx=".4" ry=".4" />
  <rect width="1" height="1" x="28" y="21" rx=".4" ry=".4" />
  <rect width="1" height="1" x="29" y="21" rx=".4" ry=".4" />
  <rect width="1" height="1" y="22" rx=".4" ry=".4" />
  <rect width="1" height="1" x="3" y="22" rx=".4" ry=".4" />
  <rect width="1" height="1" x="4" y="22" rx=".4" ry=".4" />
  <rect width="1" height="1" x="6" y="22" rx=".4" ry=".4" />
  <rect width="1" height="1" x="9" y="22" rx=".4" ry=".4" />
  <rect width="1" height="1" x="12" y="22" rx=".4" ry=".4" />
  <rect width="1" height="1" x="13" y="22" rx=".4" ry=".4" />
  <rect width="1" height="1" x="21" y="22" rx=".4" ry=".4" />
  <rect width="1" height="1" x="23" y="22" rx=".4" ry=".4" />
  <rect width="1" height="1" x="24" y="22" rx=".4" ry=".4" />
  <rect width="1" height="1" x="26" y="22" rx=".4" ry=".4" />
  <rect width="1" height="1" x="27" y="22" rx=".4" ry=".4" />
  <rect width="1" height="1" x="28" y="22" rx=".4" ry=".4" />
  <rect width="1" height="1" x="29" y="22" rx=".4" ry=".4" />
  <rect width="1" height="1" x="31" y="22" rx=".4" ry=".4" />
  <rect width="1" height="1" x="32" y="22" rx=".4" ry=".4" />
  <rect width="1" height="1" x="1" y="23" rx=".4" ry=".4" />
  <rect width="1" height="1" x="3" y="23" rx=".4" ry=".4" />
  <rect width="1" height="1" x="5" y="23" rx=".4" ry=".4" />
  <rect width="1" height="1" x="7" y="23" rx=".4" ry=".4" />
  <rect width="1" height="1" x="10" y="23" rx=".4" ry=".4" />
  <rect width="1" height="1" x="11" y="23" rx=".4" ry=".4" />
  <rect width="1" height="1" x="12" y="23" rx=".4" ry=".4" />
  <rect width="1" height="1" x="14" y="23" rx=".4" ry=".4" />
  <rect width="1" height="1" x="18" y="23" rx=".4" ry=".4" />
  <rect width="1" height="1" x="19" y="23" rx=".4" ry=".4" />
  <rect width="1" height="1" x="21" y="23" rx=".4" ry=".4" />
  <rect width="1" height="1" x="22" y="23" rx=".4" ry=".4" />
  <rect width="1" height="1" x="26" y="23" rx=".4" ry=".4" />
  <rect width="1" height="1" x="27" y="23" rx=".4" ry=".4" />
  <rect width="1" height="1" x="28" y="23" rx=".4" ry=".4" />
  <rect width="1" height="1" y="24" rx=".4" ry=".4" />
  <rect width="1" height="1" x="2" y="24" rx=".4" ry=".4" />
  <rect width="1" height="1" x="4" y="24" rx=".4" ry=".4" />
  <rect width="1" height="1" x="5" y="24" rx=".4" ry=".4" />
  <rect width="1" height="1" x="6" y="24" rx=".4" ry=".4" />
  <rect width="1" height="1" x="11" y="24" rx=".4" ry=".4" />
  <rect width="1" height="1" x="12" y="24" rx=".4" ry=".4" />
  <rect width="1" height="1" x="13" y="24" rx=".4" ry=".4" />
  <rect width="1" height="1" x="14" y="24" rx=".4" ry=".4" />
  <rect width="1" height="1" x="16" y="24" rx=".4" ry=".4" />
  <rect width="1" height="1" x="17" y="24" rx=".4" ry=".4" />
  <rect width="1" height="1" x="18" y="24" rx=".4" ry=".4" />
  <rect width="1" height="1" x="21" y="24" rx=".4" ry=".4" />
  <rect width="1" height="1" x="29" y="24" rx=".4" ry=".4" />
  <rect width="1" height="1" x="30" y="24" rx=".4" ry=".4" />
  <rect width="1" height="1" x="31" y="24" rx=".4" ry=".4" />
  <rect width="1" height="1" x="32" y="24" rx=".4" ry=".4" />
  <rect width="1" height="1" x="8" y="25" rx=".4" ry=".4" />
  <rect width="1" height="1" x="9" y="25" rx=".4" ry=".4" />
  <rect width="1" height="1" x="11" y="25" rx=".4" ry=".4" />
  <rect width="1" height="1" x="13" y="25" rx=".4" ry=".4" />
  <rect width="1" height="1" x="15" y="25" rx=".4" ry=".4" />
  <rect width="1" height="1" x="17" y="25" rx=".4" ry=".4" />
  <rect width="1" height="1" x="19" y="25" rx=".4" ry=".4" />
  <rect width="1" height="1" x="21" y="25" rx=".4" ry=".4" />
  <rect width="1" height="1" x="22" y="25" rx=".4" ry=".4" />
  <rect width="1" height="1" x="23" y="25" rx=".4" ry=".4" />
  <rect width="1" height="1" x="8" y="26" rx=".4" ry=".4" />
  <rect width="1" height="1" x="9" y="26" rx=".4" ry=".4" />
  <rect width="1" height="1" x="10" y="26" rx=".4" ry=".4" />
  <rect width="1" height="1" x="12" y="26" rx=".4" ry=".4" />
  <rect width="1" height="1" x="13" y="26" rx=".4" ry=".4" />
  <rect width="1" height="1" x="18" y="26" rx=".4" ry=".4" />
  <rect width="1" height="1" x="20" y="26" rx=".4" ry=".4" />
  <rect width="1" height="1" x="22" y="26" rx=".4" ry=".4" />
  <rect width="1" height="1" x="9" y="27" rx=".4" ry=".4" />
  <rect width="1" height="1" x="13" y="27" rx=".4" ry=".4" />
  <rect width="1" height="1" x="18" y="27" rx=".4" ry=".4" />
  <rect width="1" height="1" x="19" y="27" rx=".4" ry=".4" />
  <rect width="1" height="1" x="20" y="27" rx=".4" ry=".4" />
  <rect width="1" height="1" x="21" y="27" rx=".4" ry=".4" />
  <rect width="1" height="1" x="22" y="27" rx=".4" ry=".4" />
  <rect width="1" height="1" x="23" y="27" rx=".4" ry=".4" />
  <rect width="1" height="1" x="31" y="27" rx=".4" ry=".4" />
  <rect width="1" height="1" x="32" y="27" rx=".4" ry=".4" />
  <rect width="1" height="1" x="8" y="28" rx=".4" ry=".4" />
  <rect width="1" height="1" x="11" y="28" rx=".4" ry=".4" />
  <rect width="1" height="1" x="12" y="28" rx=".4" ry=".4" />
  <rect width="1" height="1" x="13" y="28" rx=".4" ry=".4" />
  <rect width="1" height="1" x="15" y="28" rx=".4" ry=".4" />
  <rect width="1" height="1" x="16" y="28" rx=".4" ry=".4" />
  <rect width="1" height="1" x="17" y="28" rx=".4" ry=".4" />
  <rect width="1" height="1" x="18" y="28" rx=".4" ry=".4" />
  <rect width="1" height="1" x="20" y="28" rx=".4" ry=".4" />
  <rect width="1" height="1" x="22" y="28" rx=".4" ry=".4" />
  <rect width="1" height="1" x="29" y="28" rx=".4" ry=".4" />
  <rect width="1" height="1" x="31" y="28" rx=".4" ry=".4" />
  <rect width="1" height="1" x="9" y="29" rx=".4" ry=".4" />
  <rect width="1" height="1" x="10" y="29" rx=".4" ry=".4" />
  <rect width="1" height="1" x="11" y="29" rx=".4" ry=".4" />
  <rect width="1" height="1" x="14" y="29" rx=".4" ry=".4" />
  <rect width="1" height="1" x="15" y="29" rx=".4" ry=".4" />
  <rect width="1" height="1" x="18" y="29" rx=".4" ry=".4" />
  <rect width="1" height="1" x="19" y="29" rx=".4" ry=".4" />
  <rect width="1" height="1" x="20" y="29" rx=".4" ry=".4" />
  <rect width="1" height="1" x="22" y="29" rx=".4" ry=".4" />
  <rect width="1" height="1" x="23" y="29" rx=".4" ry=".4" />
  <rect width="1" height="1" x="24" y="29" rx=".4" ry=".4" />
  <rect width="1" height="1" x="25" y="29" rx=".4" ry=".4" />
  <rect width="1" height="1" x="26" y="29" rx=".4" ry=".4" />
  <rect width="1" height="1" x="27" y="29" rx=".4" ry=".4" />
  <rect width="1" height="1" x="28" y="29" rx=".4" ry=".4" />
  <rect width="1" height="1" x="29" y="29" rx=".4" ry=".4" />
  <rect width="1" height="1" x="30" y="29" rx=".4" ry=".4" />
  <rect width="1" height="1" x="31" y="29" rx=".4" ry=".4" />
  <rect width="1" height="1" x="8" y="30" rx=".4" ry=".4" />
  <rect width="1" height="1" x="9" y="30" rx=".4" ry=".4" />
  <rect width="1" height="1" x="10" y="30" rx=".4" ry=".4" />
  <rect width="1" height="1" x="12" y="30" rx=".4" ry=".4" />
  <rect width="1" height="1" x="13" y="30" rx=".4" ry=".4" />
  <rect width="1" height="1" x="16" y="30" rx=".4" ry=".4" />
  <rect width="1" height="1" x="18" y="30" rx=".4" ry=".4" />
  <rect width="1" height="1" x="19" y="30" rx=".4" ry=".4" />
  <rect width="1" height="1" x="20" y="30" rx=".4" ry=".4" />
  <rect width="1" height="1" x="22" y="30" rx=".4" ry=".4" />
  <rect width="1" height="1" x="24" y="30" rx=".4" ry=".4" />
  <rect width="1" height="1" x="25" y="30" rx=".4" ry=".4" />
  <rect width="1" height="1" x="27" y="30" rx=".4" ry=".4" />
  <rect width="1" height="1" x="29" y="30" rx=".4" ry=".4" />
  <rect width="1" height="1" x="30" y="30" rx=".4" ry=".4" />
  <rect width="1" height="1" x="32" y="30" rx=".4" ry=".4" />
  <rect width="1" height="1" x="8" y="31" rx=".4" ry=".4" />
  <rect width="1" height="1" x="9" y="31" rx=".4" ry=".4" />
  <rect width="1" height="1" x="10" y="31" rx=".4" ry=".4" />
  <rect width="1" height="1" x="11" y="31" rx=".4" ry=".4" />
  <rect width="1" height="1" x="12" y="31" rx=".4" ry=".4" />
  <rect width="1" height="1" x="13" y="31" rx=".4" ry=".4" />
  <rect width="1" height="1" x="18" y="31" rx=".4" ry=".4" />
  <rect width="1" height="1" x="20" y="31" rx=".4" ry=".4" />
  <rect width="1" height="1" x="21" y="31" rx=".4" ry=".4" />
  <rect width="1" height="1" x="25" y="31" rx=".4" ry=".4" />
  <rect width="1" height="1" x="27" y="31" rx=".4" ry=".4" />
  <rect width="1" height="1" x="28" y="31" rx=".4" ry=".4" />
  <rect width="1" height="1" x="29" y="31" rx=".4" ry=".4" />
  <rect width="1" height="1" x="31" y="31" rx=".4" ry=".4" />
  <rect width="1" height="1" x="11" y="32" rx=".4" ry=".4" />
  <rect width="1" height="1" x="12" y="32" rx=".4" ry=".4" />
  <rect width="1" height="1" x="16" y="32" rx=".4" ry=".4" />
  <rect width="1" height="1" x="17" y="32" rx=".4" ry=".4" />
  <rect width="1" height="1" x="18" y="32" rx=".4" ry=".4" />
  <rect width="1" height="1" x="19" y="32" rx=".4" ry=".4" />
  <rect width="1" height="1" x="21" y="32" rx=".4" ry=".4" />
  <rect width="1" height="1" x="22" y="32" rx=".4" ry=".4" />
  <rect width="1" height="1" x="27" y="32" rx=".4" ry=".4" />
  <rect width="1" height="1" x="29" y="32" rx=".4" ry=".4" />
  <rect width="1" height="1" x="30" y="32" rx=".4" ry=".4" />
</svg>