<svg width="700" height="700" viewBox="0 0 700 700" fill="none" xmlns="http://www.w3.org/2000/svg">
<g clip-path="url(#clip0_794_9)">
<g filter="url(#filter0_d_794_9)">
<path d="M127.775 424.994C119.622 417.174 115.545 405.442 115.545 389.801C115.545 372.329 121.286 354.274 132.767 335.638C139.091 325.321 147.66 316.834 158.476 310.178C169.292 303.522 181.107 300.194 193.919 300.194C199.577 300.194 205.651 301.193 212.14 303.19C224.787 282.39 235.103 267.33 243.091 258.012C251.078 248.694 257.983 241.622 263.807 236.796C276.953 226.146 290.265 220.822 303.743 220.822C306.406 220.822 307.737 222.153 307.737 224.815C296.755 248.943 288.268 273.321 282.278 297.948C276.454 322.409 271.878 346.287 268.55 369.583C265.388 392.713 263.807 412.348 263.807 428.489C263.807 430.818 262.643 431.983 260.313 431.983C254.489 431.983 251.577 425.327 251.577 412.015C251.577 395.209 249.996 379.983 246.835 366.338C241.011 340.38 230.86 323.241 216.383 314.921C214.553 318.415 211.059 325.071 205.9 334.889C200.908 344.706 197.164 351.945 194.668 356.604C192.339 361.097 188.761 367.503 183.935 375.823C179.276 383.977 175.283 390.55 171.955 395.542C163.967 407.522 155.315 418.006 145.996 426.991C147.66 427.49 149.657 427.74 151.987 427.74C165.964 427.74 177.529 423.164 186.681 414.012C195.833 404.694 202.156 393.711 205.651 381.065C206.15 379.234 207.481 378.402 209.644 378.569C210.975 378.735 211.475 379.401 211.142 380.566C207.481 394.876 200.492 407.439 190.175 418.255C180.025 428.905 167.212 434.23 151.737 434.23C148.243 434.23 144.332 433.647 140.006 432.482C124.697 444.796 108.39 450.953 91.0841 450.953C68.6201 450.953 52.6457 442.134 43.1609 424.495C38.0025 415.01 35.4233 404.777 35.4233 393.794C35.4233 387.97 36.1721 381.897 37.6697 375.574C41.6633 358.434 49.8169 346.204 62.1305 338.882C68.2873 335.222 75.0265 333.391 82.3481 333.391C84.6777 333.391 86.5913 334.14 88.0889 335.638C89.5865 336.969 90.6681 339.132 91.3337 342.127C81.5161 342.127 72.6969 345.622 64.8761 352.61C51.7305 364.092 45.1577 380.399 45.1577 401.532C45.1577 414.345 48.9849 424.329 56.6393 431.484C64.4601 438.806 74.8601 442.466 87.8393 442.466C100.985 442.466 114.297 436.642 127.775 424.994ZM193.67 309.18C179.692 309.18 167.129 313.756 155.98 322.908C144.831 332.06 136.678 342.793 131.519 355.106C126.361 367.254 123.782 379.567 123.782 392.047C123.782 404.527 126.943 414.012 133.267 420.502C139.59 414.511 146.329 406.69 153.484 397.039C160.639 387.222 166.297 378.985 170.457 372.329C174.617 365.673 181.107 354.857 189.926 339.881C198.745 324.905 204.486 315.254 207.148 310.927C203.155 309.762 198.662 309.18 193.67 309.18ZM290.764 230.556C277.452 234.05 265.305 242.287 254.323 255.266C243.34 268.246 232.108 285.468 220.627 306.934C236.767 315.753 248.083 333.391 254.572 359.849C257.567 331.561 262.393 305.602 269.049 281.974C275.871 258.178 283.11 241.039 290.764 230.556Z" fill="black"/>
</g>
<g filter="url(#filter1_d_794_9)">
<path d="M316.377 433.394C309.444 433.394 304.11 431.994 300.377 429.194C296.644 426.261 294.777 421.327 294.777 414.394C294.777 412.127 295.11 408.994 295.777 404.994L307.577 344.394H292.577L295.377 330.394H310.377L316.977 296.394H332.977L326.377 330.394H346.377L343.577 344.394H323.577L311.577 405.794C311.177 407.927 310.977 409.794 310.977 411.394C310.977 414.194 311.777 416.261 313.377 417.594C314.977 418.794 317.644 419.394 321.377 419.394C323.244 419.394 326.177 419.194 330.177 418.794L327.377 432.394C323.244 433.061 319.577 433.394 316.377 433.394ZM378.999 435.394C365.532 435.394 355.199 431.661 347.999 424.194C340.799 416.594 337.199 406.061 337.199 392.594C337.199 380.461 339.799 369.461 344.999 359.594C350.199 349.594 357.399 341.727 366.599 335.994C375.799 330.261 386.065 327.394 397.399 327.394C410.732 327.394 420.665 330.794 427.199 337.594C433.865 344.394 437.199 353.661 437.199 365.394C437.199 370.594 436.399 377.327 434.799 385.594H354.199C353.932 388.527 353.799 390.794 353.799 392.394C353.799 401.861 355.865 409.061 359.999 413.994C364.132 418.927 370.865 421.394 380.199 421.394C389.265 421.394 396.732 419.261 402.599 414.994C408.465 410.594 412.465 405.927 414.599 400.994H431.199C426.265 411.527 419.399 419.927 410.599 426.194C401.799 432.327 391.265 435.394 378.999 435.394ZM420.199 371.594C420.599 369.194 420.799 366.794 420.799 364.394C420.799 357.461 418.732 351.861 414.599 347.594C410.465 343.327 404.265 341.194 395.999 341.194C385.999 341.194 377.599 343.927 370.799 349.394C363.999 354.727 359.265 362.127 356.599 371.594H420.199ZM462.969 289.394H478.969L451.169 432.394H435.169L462.969 289.394ZM486.227 330.394H502.227L482.427 432.394H466.427L486.227 330.394ZM492.227 291.394H511.427L507.627 310.594H488.427L492.227 291.394ZM543.085 435.394C529.618 435.394 519.285 431.661 512.085 424.194C504.885 416.594 501.285 406.061 501.285 392.594C501.285 380.461 503.885 369.461 509.085 359.594C514.285 349.594 521.485 341.727 530.685 335.994C539.885 330.261 550.151 327.394 561.485 327.394C574.818 327.394 584.751 330.794 591.285 337.594C597.951 344.394 601.285 353.661 601.285 365.394C601.285 370.594 600.485 377.327 598.885 385.594H518.285C518.018 388.527 517.885 390.794 517.885 392.394C517.885 401.861 519.951 409.061 524.085 413.994C528.218 418.927 534.951 421.394 544.285 421.394C553.351 421.394 560.818 419.261 566.685 414.994C572.551 410.594 576.551 405.927 578.685 400.994H595.285C590.351 411.527 583.485 419.927 574.685 426.194C565.885 432.327 555.351 435.394 543.085 435.394ZM584.285 371.594C584.685 369.194 584.885 366.794 584.885 364.394C584.885 357.461 582.818 351.861 578.685 347.594C574.551 343.327 568.351 341.194 560.085 341.194C550.085 341.194 541.685 343.927 534.885 349.394C528.085 354.727 523.351 362.127 520.685 371.594H584.285ZM615.255 432.394H599.255L619.055 330.394H635.055L631.255 349.594H631.655C635.788 342.527 640.455 337.194 645.655 333.594C650.855 329.861 657.188 327.994 664.655 327.994C667.588 327.994 670.255 328.194 672.655 328.594L669.455 344.194C667.322 343.794 665.255 343.594 663.255 343.594C654.055 343.594 645.988 346.794 639.055 353.194C632.122 359.594 627.722 367.794 625.855 377.794L615.255 432.394Z" fill="black"/>
</g>
<g filter="url(#filter2_d_794_9)">
<path d="M127.775 424.994C119.622 417.174 115.545 405.442 115.545 389.801C115.545 372.329 121.286 354.274 132.767 335.638C139.091 325.321 147.66 316.834 158.476 310.178C169.292 303.522 181.107 300.194 193.919 300.194C199.577 300.194 205.651 301.193 212.14 303.19C224.787 282.39 235.103 267.33 243.091 258.012C251.078 248.694 257.983 241.622 263.807 236.796C276.953 226.146 290.265 220.822 303.743 220.822C306.406 220.822 307.737 222.153 307.737 224.815C296.755 248.943 288.268 273.321 282.278 297.948C276.454 322.409 271.878 346.287 268.55 369.583C265.388 392.713 263.807 412.348 263.807 428.489C263.807 430.818 262.643 431.983 260.313 431.983C254.489 431.983 251.577 425.327 251.577 412.015C251.577 395.209 249.996 379.983 246.835 366.338C241.011 340.38 230.86 323.241 216.383 314.921C214.553 318.415 211.059 325.071 205.9 334.889C200.908 344.706 197.164 351.945 194.668 356.604C192.339 361.097 188.761 367.503 183.935 375.823C179.276 383.977 175.283 390.55 171.955 395.542C163.967 407.522 155.315 418.006 145.996 426.991C147.66 427.49 149.657 427.74 151.987 427.74C165.964 427.74 177.529 423.164 186.681 414.012C195.833 404.694 202.156 393.711 205.651 381.065C206.15 379.234 207.481 378.402 209.644 378.569C210.975 378.735 211.475 379.401 211.142 380.566C207.481 394.876 200.492 407.439 190.175 418.255C180.025 428.905 167.212 434.23 151.737 434.23C148.243 434.23 144.332 433.647 140.006 432.482C124.697 444.796 108.39 450.953 91.0841 450.953C68.6201 450.953 52.6457 442.134 43.1609 424.495C38.0025 415.01 35.4233 404.777 35.4233 393.794C35.4233 387.97 36.1721 381.897 37.6697 375.574C41.6633 358.434 49.8169 346.204 62.1305 338.882C68.2873 335.222 75.0265 333.391 82.3481 333.391C84.6777 333.391 86.5913 334.14 88.0889 335.638C89.5865 336.969 90.6681 339.132 91.3337 342.127C81.5161 342.127 72.6969 345.622 64.8761 352.61C51.7305 364.092 45.1577 380.399 45.1577 401.532C45.1577 414.345 48.9849 424.329 56.6393 431.484C64.4601 438.806 74.8601 442.466 87.8393 442.466C100.985 442.466 114.297 436.642 127.775 424.994ZM193.67 309.18C179.692 309.18 167.129 313.756 155.98 322.908C144.831 332.06 136.678 342.793 131.519 355.106C126.361 367.254 123.782 379.567 123.782 392.047C123.782 404.527 126.943 414.012 133.267 420.502C139.59 414.511 146.329 406.69 153.484 397.039C160.639 387.222 166.297 378.985 170.457 372.329C174.617 365.673 181.107 354.857 189.926 339.881C198.745 324.905 204.486 315.254 207.148 310.927C203.155 309.762 198.662 309.18 193.67 309.18ZM290.764 230.556C277.452 234.05 265.305 242.287 254.323 255.266C243.34 268.246 232.108 285.468 220.627 306.934C236.767 315.753 248.083 333.391 254.572 359.849C257.567 331.561 262.393 305.602 269.049 281.974C275.871 258.178 283.11 241.039 290.764 230.556Z" fill="black"/>
</g>
<g filter="url(#filter3_d_794_9)">
<path d="M316.377 433.394C309.444 433.394 304.11 431.994 300.377 429.194C296.644 426.261 294.777 421.327 294.777 414.394C294.777 412.127 295.11 408.994 295.777 404.994L307.577 344.394H292.577L295.377 330.394H310.377L316.977 296.394H332.977L326.377 330.394H346.377L343.577 344.394H323.577L311.577 405.794C311.177 407.927 310.977 409.794 310.977 411.394C310.977 414.194 311.777 416.261 313.377 417.594C314.977 418.794 317.644 419.394 321.377 419.394C323.244 419.394 326.177 419.194 330.177 418.794L327.377 432.394C323.244 433.061 319.577 433.394 316.377 433.394ZM378.999 435.394C365.532 435.394 355.199 431.661 347.999 424.194C340.799 416.594 337.199 406.061 337.199 392.594C337.199 380.461 339.799 369.461 344.999 359.594C350.199 349.594 357.399 341.727 366.599 335.994C375.799 330.261 386.065 327.394 397.399 327.394C410.732 327.394 420.665 330.794 427.199 337.594C433.865 344.394 437.199 353.661 437.199 365.394C437.199 370.594 436.399 377.327 434.799 385.594H354.199C353.932 388.527 353.799 390.794 353.799 392.394C353.799 401.861 355.865 409.061 359.999 413.994C364.132 418.927 370.865 421.394 380.199 421.394C389.265 421.394 396.732 419.261 402.599 414.994C408.465 410.594 412.465 405.927 414.599 400.994H431.199C426.265 411.527 419.399 419.927 410.599 426.194C401.799 432.327 391.265 435.394 378.999 435.394ZM420.199 371.594C420.599 369.194 420.799 366.794 420.799 364.394C420.799 357.461 418.732 351.861 414.599 347.594C410.465 343.327 404.265 341.194 395.999 341.194C385.999 341.194 377.599 343.927 370.799 349.394C363.999 354.727 359.265 362.127 356.599 371.594H420.199ZM462.969 289.394H478.969L451.169 432.394H435.169L462.969 289.394ZM486.227 330.394H502.227L482.427 432.394H466.427L486.227 330.394ZM492.227 291.394H511.427L507.627 310.594H488.427L492.227 291.394ZM543.085 435.394C529.618 435.394 519.285 431.661 512.085 424.194C504.885 416.594 501.285 406.061 501.285 392.594C501.285 380.461 503.885 369.461 509.085 359.594C514.285 349.594 521.485 341.727 530.685 335.994C539.885 330.261 550.151 327.394 561.485 327.394C574.818 327.394 584.751 330.794 591.285 337.594C597.951 344.394 601.285 353.661 601.285 365.394C601.285 370.594 600.485 377.327 598.885 385.594H518.285C518.018 388.527 517.885 390.794 517.885 392.394C517.885 401.861 519.951 409.061 524.085 413.994C528.218 418.927 534.951 421.394 544.285 421.394C553.351 421.394 560.818 419.261 566.685 414.994C572.551 410.594 576.551 405.927 578.685 400.994H595.285C590.351 411.527 583.485 419.927 574.685 426.194C565.885 432.327 555.351 435.394 543.085 435.394ZM584.285 371.594C584.685 369.194 584.885 366.794 584.885 364.394C584.885 357.461 582.818 351.861 578.685 347.594C574.551 343.327 568.351 341.194 560.085 341.194C550.085 341.194 541.685 343.927 534.885 349.394C528.085 354.727 523.351 362.127 520.685 371.594H584.285ZM615.255 432.394H599.255L619.055 330.394H635.055L631.255 349.594H631.655C635.788 342.527 640.455 337.194 645.655 333.594C650.855 329.861 657.188 327.994 664.655 327.994C667.588 327.994 670.255 328.194 672.655 328.594L669.455 344.194C667.322 343.794 665.255 343.594 663.255 343.594C654.055 343.594 645.988 346.794 639.055 353.194C632.122 359.594 627.722 367.794 625.855 377.794L615.255 432.394Z" fill="black"/>
</g>
</g>
<defs>
<filter id="filter0_d_794_9" x="-12.763" y="172.635" width="368.686" height="326.504" filterUnits="userSpaceOnUse" color-interpolation-filters="sRGB">
<feFlood flood-opacity="0" result="BackgroundImageFix"/>
<feColorMatrix in="SourceAlpha" type="matrix" values="0 0 0 0 0 0 0 0 0 0 0 0 0 0 0 0 0 0 127 0" result="hardAlpha"/>
<feOffset/>
<feGaussianBlur stdDeviation="24.0932"/>
<feComposite in2="hardAlpha" operator="out"/>
<feColorMatrix type="matrix" values="0 0 0 0 1 0 0 0 0 1 0 0 0 0 1 0 0 0 0.5 0"/>
<feBlend mode="normal" in2="BackgroundImageFix" result="effect1_dropShadow_794_9"/>
<feBlend mode="normal" in="SourceGraphic" in2="effect1_dropShadow_794_9" result="shape"/>
</filter>
<filter id="filter1_d_794_9" x="244.391" y="241.208" width="476.451" height="242.373" filterUnits="userSpaceOnUse" color-interpolation-filters="sRGB">
<feFlood flood-opacity="0" result="BackgroundImageFix"/>
<feColorMatrix in="SourceAlpha" type="matrix" values="0 0 0 0 0 0 0 0 0 0 0 0 0 0 0 0 0 0 127 0" result="hardAlpha"/>
<feOffset/>
<feGaussianBlur stdDeviation="24.0932"/>
<feComposite in2="hardAlpha" operator="out"/>
<feColorMatrix type="matrix" values="0 0 0 0 1 0 0 0 0 1 0 0 0 0 1 0 0 0 0.5 0"/>
<feBlend mode="normal" in2="BackgroundImageFix" result="effect1_dropShadow_794_9"/>
<feBlend mode="normal" in="SourceGraphic" in2="effect1_dropShadow_794_9" result="shape"/>
</filter>
<filter id="filter2_d_794_9" x="-12.763" y="172.635" width="368.686" height="326.504" filterUnits="userSpaceOnUse" color-interpolation-filters="sRGB">
<feFlood flood-opacity="0" result="BackgroundImageFix"/>
<feColorMatrix in="SourceAlpha" type="matrix" values="0 0 0 0 0 0 0 0 0 0 0 0 0 0 0 0 0 0 127 0" result="hardAlpha"/>
<feOffset/>
<feGaussianBlur stdDeviation="24.0932"/>
<feComposite in2="hardAlpha" operator="out"/>
<feColorMatrix type="matrix" values="0 0 0 0 1 0 0 0 0 1 0 0 0 0 1 0 0 0 0.5 0"/>
<feBlend mode="normal" in2="BackgroundImageFix" result="effect1_dropShadow_794_9"/>
<feBlend mode="normal" in="SourceGraphic" in2="effect1_dropShadow_794_9" result="shape"/>
</filter>
<filter id="filter3_d_794_9" x="244.391" y="241.208" width="476.451" height="242.373" filterUnits="userSpaceOnUse" color-interpolation-filters="sRGB">
<feFlood flood-opacity="0" result="BackgroundImageFix"/>
<feColorMatrix in="SourceAlpha" type="matrix" values="0 0 0 0 0 0 0 0 0 0 0 0 0 0 0 0 0 0 127 0" result="hardAlpha"/>
<feOffset/>
<feGaussianBlur stdDeviation="24.0932"/>
<feComposite in2="hardAlpha" operator="out"/>
<feColorMatrix type="matrix" values="0 0 0 0 1 0 0 0 0 1 0 0 0 0 1 0 0 0 0.5 0"/>
<feBlend mode="normal" in2="BackgroundImageFix" result="effect1_dropShadow_794_9"/>
<feBlend mode="normal" in="SourceGraphic" in2="effect1_dropShadow_794_9" result="shape"/>
</filter>
<clipPath id="clip0_794_9">
<rect width="700" height="700" fill="white"/>
</clipPath>
</defs>
</svg>
